<svg width="96" height="97" viewBox="0 0 96 97" fill="none" xmlns="http://www.w3.org/2000/svg">
<path d="M47.04 3.39771V8.19771" stroke="#08BD80" stroke-width="3" stroke-linecap="round" stroke-linejoin="round"/>
<path d="M47.04 87.3977V92.1977" stroke="#08BD80" stroke-width="3" stroke-linecap="round" stroke-linejoin="round"/>
<path d="M15.3599 15.6379L18.754 19.0321" stroke="#08BD80" stroke-width="3" stroke-linecap="round" stroke-linejoin="round"/>
<path d="M75.3599 75.6379L78.754 79.0321" stroke="#08BD80" stroke-width="3" stroke-linecap="round" stroke-linejoin="round"/>
<path d="M15.3599 79.2719L18.754 75.8777" stroke="#08BD80" stroke-width="3" stroke-linecap="round" stroke-linejoin="round"/>
<path d="M75.8403 18.7914L79.2344 15.3973" stroke="#08BD80" stroke-width="3" stroke-linecap="round" stroke-linejoin="round"/>
<path d="M53.2831 38.4708C53.8353 38.4708 54.2831 38.0231 54.2831 37.4708V36.514C54.2831 35.9618 53.8353 35.514 53.2831 35.514H39.2559C38.7036 35.514 38.2559 35.9618 38.2559 36.514V37.4708C38.2559 38.0231 38.7036 38.4708 39.2559 38.4708H42.8255C44.7376 38.4708 45.8498 39.2479 46.4259 40.2178C46.6019 40.5141 46.3621 40.8564 46.0174 40.8564H39.2559C38.7036 40.8564 38.2559 41.3042 38.2559 41.8564V42.8132C38.2559 43.3655 38.7036 43.8132 39.2559 43.8132H46.0938C46.426 43.8132 46.6674 44.1339 46.5187 44.4309C45.9704 45.5265 44.8024 46.2996 42.5231 46.2996H39.2559C38.7036 46.2996 38.2559 46.7474 38.2559 47.2996V48.8168C38.2559 49.097 38.3734 49.3643 38.5798 49.5537L48.1498 58.3341C48.3343 58.5033 48.5756 58.5972 48.8259 58.5972H52.3902C52.8465 58.5972 53.0644 58.0361 52.7275 57.7282L43.9007 49.6596V49.5924C47.7334 49.1737 50.393 47.5201 51.0211 44.2467C51.0683 44.0004 51.2785 43.8132 51.5294 43.8132H53.2831C53.8353 43.8132 54.2831 43.3655 54.2831 42.8132V41.8564C54.2831 41.3042 53.8353 40.8564 53.2831 40.8564H51.3002C51.077 40.8564 50.883 40.7076 50.807 40.4976C50.522 39.71 50.0719 39.0309 49.5455 38.5044V38.4708H53.2831Z" fill="#08BD80"/>
<circle cx="47.04" cy="46.5977" r="22.5" stroke="#3C4852" stroke-width="3"/>
<circle cx="47.0399" cy="46.5977" r="32.1" stroke="#3C4852" stroke-width="3"/>
<path d="M2.3999 47.5575L7.1999 47.5575" stroke="#08BD80" stroke-width="3" stroke-linecap="round" stroke-linejoin="round"/>
<path d="M87.8398 47.5575L92.6398 47.5575" stroke="#08BD80" stroke-width="3" stroke-linecap="round" stroke-linejoin="round"/>
</svg>
