<svg width="96" height="97" viewBox="0 0 96 97" fill="none" xmlns="http://www.w3.org/2000/svg">
<path d="M14.3999 87.8775V27.3975L41.5688 32.8312C45.3082 33.5791 47.9999 36.8624 47.9999 40.6759V92.9175L14.3999 87.8775Z" stroke="#3C4852" stroke-width="3" stroke-linejoin="round"/>
<path d="M81.6001 87.8775V27.3975L54.4312 32.8312C50.6918 33.5791 48.0001 36.8624 48.0001 40.6759V92.9175L81.6001 87.8775Z" stroke="#3C4852" stroke-width="3" stroke-linejoin="round"/>
<path d="M14.3999 74.4375L39.5999 79.4775C41.8399 80.0375 46.6559 82.5015 47.9999 87.8775" stroke="#3C4852" stroke-width="3"/>
<path d="M81.6001 74.4375L56.4001 79.4775C54.1601 80.0375 49.3441 82.5015 48.0001 87.8775" stroke="#3C4852" stroke-width="3"/>
<path d="M24.3496 48.3247L39.7308 50.1477" stroke="#3C4852" stroke-width="3" stroke-linecap="round" stroke-linejoin="round"/>
<path d="M24.3496 61.7646L39.7308 63.5876" stroke="#3C4852" stroke-width="3" stroke-linecap="round" stroke-linejoin="round"/>
<path d="M73.3301 48.3247L57.9489 50.1477" stroke="#3C4852" stroke-width="3" stroke-linecap="round" stroke-linejoin="round"/>
<path d="M73.3301 61.7646L57.9489 63.5876" stroke="#3C4852" stroke-width="3" stroke-linecap="round" stroke-linejoin="round"/>
<rect x="24" y="3.39746" width="45.6" height="14.4" stroke="#3C4852" stroke-width="3" stroke-linejoin="round"/>
<path d="M33.1444 11.4122C33.0894 11.9106 32.8741 12.2999 32.4986 12.5802C32.1231 12.8582 31.6236 12.9973 31.0003 12.9973C30.5647 12.9973 30.1804 12.9096 29.8475 12.7342C29.517 12.5566 29.2617 12.3053 29.0814 11.9802C28.9012 11.655 28.8073 11.2775 28.7998 10.8475V10.4112C28.7998 9.97053 28.8912 9.58229 29.0739 9.24646C29.2567 8.91063 29.5183 8.65181 29.8587 8.46999C30.2017 8.28817 30.5972 8.19727 31.0453 8.19727C31.6487 8.19727 32.1343 8.33737 32.5023 8.61759C32.8703 8.8978 33.0844 9.29352 33.1444 9.80475H32.1982C32.1531 9.46892 32.0379 9.22721 31.8527 9.07962C31.6699 8.92989 31.4008 8.85502 31.0453 8.85502C30.6323 8.85502 30.3144 8.98443 30.0916 9.24325C29.8713 9.49994 29.7586 9.87748 29.7536 10.3759V10.7898C29.7536 11.2946 29.8587 11.6796 30.069 11.9449C30.2818 12.2101 30.5922 12.3427 31.0003 12.3427C31.3733 12.3427 31.6537 12.2711 31.8414 12.1277C32.0292 11.9844 32.1481 11.7459 32.1982 11.4122H33.1444Z" fill="#08BD80"/>
<path d="M35.4962 12.285H37.9783V12.9331H34.5462V8.26144H35.4962V12.285Z" fill="#08BD80"/>
<path d="M42.3916 11.8454H40.2737L39.8306 12.9331H38.843L40.9083 8.26144H41.7607L43.8298 12.9331H42.8385L42.3916 11.8454ZM40.5403 11.1908H42.125L41.3327 9.25288L40.5403 11.1908Z" fill="#08BD80"/>
<path d="M47.8601 11.7299C47.8601 11.5245 47.775 11.3662 47.6047 11.255C47.437 11.1438 47.1328 11.0315 46.6922 10.9181C46.2517 10.8048 45.9012 10.6785 45.6408 10.5395C45.1427 10.2721 44.8936 9.92347 44.8936 9.49352C44.8936 9.11705 45.0726 8.80689 45.4305 8.56304C45.791 8.31919 46.2579 8.19727 46.8312 8.19727C47.2117 8.19727 47.5509 8.25716 47.8488 8.37694C48.1467 8.49673 48.3808 8.66785 48.551 8.89031C48.7212 9.11063 48.8064 9.35555 48.8064 9.62507H47.8601C47.8601 9.38122 47.77 9.19085 47.5897 9.05395C47.412 8.91491 47.1566 8.84539 46.8237 8.84539C46.5133 8.84539 46.2717 8.90208 46.0989 9.01545C45.9287 9.12882 45.8436 9.28711 45.8436 9.49031C45.8436 9.66144 45.9362 9.80475 46.1215 9.92026C46.3067 10.0336 46.6121 10.1449 47.0377 10.254C47.4633 10.3609 47.805 10.4839 48.0629 10.6229C48.3207 10.7598 48.5097 10.9181 48.6299 11.0978C48.75 11.2753 48.8101 11.4839 48.8101 11.7235C48.8101 12.1128 48.6349 12.4229 48.2844 12.654C47.9364 12.8828 47.4633 12.9973 46.865 12.9973C46.4694 12.9973 46.1052 12.9352 45.7723 12.8112C45.4418 12.685 45.184 12.5117 44.9987 12.2914C44.816 12.0711 44.7246 11.8144 44.7246 11.5213H45.6746C45.6746 11.7866 45.7773 11.9919 45.9825 12.1374C46.1878 12.2828 46.482 12.3556 46.865 12.3556C47.1954 12.3556 47.4433 12.2989 47.6085 12.1855C47.7762 12.07 47.8601 11.9181 47.8601 11.7299Z" fill="#08BD80"/>
<path d="M53.0507 11.7299C53.0507 11.5245 52.9656 11.3662 52.7953 11.255C52.6276 11.1438 52.3234 11.0315 51.8829 10.9181C51.4423 10.8048 51.0918 10.6785 50.8314 10.5395C50.3333 10.2721 50.0842 9.92347 50.0842 9.49352C50.0842 9.11705 50.2632 8.80689 50.6211 8.56304C50.9816 8.31919 51.4485 8.19727 52.0218 8.19727C52.4023 8.19727 52.7415 8.25716 53.0394 8.37694C53.3373 8.49673 53.5714 8.66785 53.7416 8.89031C53.9118 9.11063 53.997 9.35555 53.997 9.62507H53.0507C53.0507 9.38122 52.9606 9.19085 52.7803 9.05395C52.6026 8.91491 52.3472 8.84539 52.0143 8.84539C51.7039 8.84539 51.4623 8.90208 51.2895 9.01545C51.1193 9.12882 51.0342 9.28711 51.0342 9.49031C51.0342 9.66144 51.1268 9.80475 51.3121 9.92026C51.4973 10.0336 51.8027 10.1449 52.2283 10.254C52.6539 10.3609 52.9956 10.4839 53.2535 10.6229C53.5113 10.7598 53.7003 10.9181 53.8205 11.0978C53.9406 11.2753 54.0007 11.4839 54.0007 11.7235C54.0007 12.1128 53.8255 12.4229 53.475 12.654C53.127 12.8828 52.6539 12.9973 52.0556 12.9973C51.66 12.9973 51.2958 12.9352 50.9629 12.8112C50.6324 12.685 50.3746 12.5117 50.1893 12.2914C50.0066 12.0711 49.9152 11.8144 49.9152 11.5213H50.8652C50.8652 11.7866 50.9679 11.9919 51.1731 12.1374C51.3784 12.2828 51.6726 12.3556 52.0556 12.3556C52.386 12.3556 52.6339 12.2989 52.7991 12.1855C52.9668 12.07 53.0507 11.9181 53.0507 11.7299Z" fill="#08BD80"/>
<path d="M64.9461 12.9334H63.9998V8.26179H64.9461V12.9334Z" fill="#08BD80"/>
<path d="M58.7543 9.94941L59.9033 8.26171H60.9998L59.3476 10.5783L61.0374 12.9334H59.9296L58.7543 11.22L57.5752 12.9334H56.4712L58.1647 10.5783L56.5087 8.26171H57.6052L58.7543 9.94941Z" fill="#08BD80"/>
<path d="M62.9461 12.9335H61.9998V8.2618H62.9461V12.9335Z" fill="#08BD80"/>
</svg>
