<svg width="560" height="333" viewBox="0 0 560 333" fill="none" xmlns="http://www.w3.org/2000/svg">
<ellipse cx="315.543" cy="84.093" rx="78.1862" ry="78.4273" fill="#FAF4C1"/>
<path opacity="0.23" fill-rule="evenodd" clip-rule="evenodd" d="M328.184 6.68609V108.36C328.184 111.331 325.776 113.738 322.806 113.738H243.135C239.41 104.593 237.356 94.5836 237.356 84.0935C237.356 40.7793 272.362 5.66626 315.543 5.66626C319.847 5.66626 324.069 6.01508 328.184 6.68609Z" fill="#ADB649"/>
<g opacity="0.8">
<g opacity="0.4">
<path d="M274.515 63.9896L283.747 69.3359V80.0284L274.515 85.3746L265.284 80.0284V69.3359L274.515 63.9896Z" stroke="white" stroke-width="1.91455" stroke-linecap="round" stroke-linejoin="round"/>
<path d="M283.886 48.0101L293.118 53.3564V64.0489L283.886 69.3951L274.655 64.0489V53.3564L283.886 48.0101Z" stroke="white" stroke-width="1.91455" stroke-linecap="round" stroke-linejoin="round"/>
<path d="M302.488 37.3755V48.068L293.257 53.4142L284.025 48.068V37.3755" stroke="white" stroke-width="1.91455" stroke-linecap="round" stroke-linejoin="round"/>
<path d="M274.654 95.949V85.2565L283.886 79.9103L293.117 85.2565V95.949" stroke="white" stroke-width="1.91455" stroke-linecap="round" stroke-linejoin="round"/>
<path d="M283.983 37.3755V48.068L274.751 53.4142L265.52 48.068V37.3755" stroke="white" stroke-width="1.91455" stroke-linecap="round" stroke-linejoin="round"/>
<path d="M265.377 48.0092L274.609 53.3554V64.0479L265.377 69.3941L256.146 64.0479V53.3554L265.377 48.0092Z" fill="white" stroke="white" stroke-width="1.91455" stroke-linecap="round" stroke-linejoin="round"/>
<path d="M311.624 53.3554L302.393 48.0092L293.161 53.3554V64.0479L302.393 69.3941L311.624 64.0479" stroke="white" stroke-width="1.91455" stroke-linecap="round" stroke-linejoin="round"/>
<path d="M320.762 69.3359L311.53 63.9896L302.299 69.3359V80.0283L311.53 85.3746L320.762 80.0283" stroke="white" stroke-width="1.91455" stroke-linecap="round" stroke-linejoin="round"/>
<path d="M246.774 69.3359L256.006 63.9896L265.237 69.3359V80.0283L256.006 85.3746L246.774 80.0283" stroke="white" stroke-width="1.91455" stroke-linecap="round" stroke-linejoin="round"/>
<path d="M293.021 63.9896L302.252 69.3359V80.0284L293.021 85.3746L283.789 80.0284V69.3359L293.021 63.9896Z" stroke="white" stroke-width="1.91455" stroke-linecap="round" stroke-linejoin="round"/>
</g>
<ellipse cx="265.402" cy="48.303" rx="1.5228" ry="1.5275" fill="white"/>
<ellipse cx="255.795" cy="63.8134" rx="1.5228" ry="1.5275" fill="white"/>
<ellipse cx="264.933" cy="80.0284" rx="1.5228" ry="1.5275" fill="white"/>
<ellipse cx="284.143" cy="48.303" rx="1.5228" ry="1.5275" fill="white"/>
<ellipse cx="274.538" cy="63.8134" rx="1.5228" ry="1.5275" fill="white"/>
<ellipse cx="283.674" cy="80.0284" rx="1.5228" ry="1.5275" fill="white"/>
<ellipse cx="302.886" cy="48.303" rx="1.5228" ry="1.5275" fill="white"/>
<ellipse cx="293.28" cy="63.8134" rx="1.5228" ry="1.5275" fill="white"/>
<ellipse cx="302.415" cy="80.0284" rx="1.5228" ry="1.5275" fill="white"/>
<ellipse cx="311.788" cy="64.0489" rx="1.5228" ry="1.5275" fill="white"/>
</g>
<path d="M314.266 14.5796C287.077 22.6299 286.364 45.9922 305.053 46.4921L314.266 14.5796Z" fill="#442525"/>
<ellipse cx="112.709" cy="113.057" rx="112.709" ry="113.057" fill="#A4CAFF"/>
<rect x="33.6299" y="43.479" width="156.315" height="87.6338" rx="1.70625" fill="#D8E8FF"/>
<g opacity="0.2">
<path opacity="0.8" d="M48.3691 66.1145H101.647" stroke="#156EF0" stroke-width="4.17857" stroke-linecap="round" stroke-linejoin="round"/>
<path opacity="0.8" d="M48.3691 76.8951H73.1055" stroke="#156EF0" stroke-width="4.17857" stroke-linecap="round" stroke-linejoin="round"/>
<path opacity="0.8" d="M48.3691 89.9415H50.2719" stroke="#156EF0" stroke-width="4.17857" stroke-linecap="round" stroke-linejoin="round"/>
<path opacity="0.8" d="M80.7168 89.9415H82.6196" stroke="#156EF0" stroke-width="4.17857" stroke-linecap="round" stroke-linejoin="round"/>
<path opacity="0.4" d="M59.7861 89.9415H69.3001" stroke="#156EF0" stroke-width="4.17857" stroke-linecap="round" stroke-linejoin="round"/>
<path opacity="0.4" d="M92.1338 89.9415H101.648" stroke="#156EF0" stroke-width="4.17857" stroke-linecap="round" stroke-linejoin="round"/>
<path opacity="0.8" d="M48.3691 103.302H50.2719" stroke="#156EF0" stroke-width="4.17857" stroke-linecap="round" stroke-linejoin="round"/>
<path opacity="0.8" d="M80.7168 103.302H82.6196" stroke="#156EF0" stroke-width="4.17857" stroke-linecap="round" stroke-linejoin="round"/>
<path opacity="0.4" d="M59.7861 103.302H69.3001" stroke="#156EF0" stroke-width="4.17857" stroke-linecap="round" stroke-linejoin="round"/>
<path opacity="0.4" d="M92.1338 103.302H101.648" stroke="#156EF0" stroke-width="4.17857" stroke-linecap="round" stroke-linejoin="round"/>
</g>
<g opacity="0.15">
<path d="M166.724 110.043V64.5337L122.919 110.043H166.724Z" stroke="#156EF0" stroke-width="2.34669" stroke-linecap="round" stroke-linejoin="round"/>
<path d="M169.854 77.4708C166.686 79.855 158.809 82.0178 152.644 71.5953" stroke="#156EF0" stroke-width="2.34669" stroke-linecap="round" stroke-linejoin="round"/>
<path d="M125.496 101.421C129.24 100.131 137.375 100.52 139.957 112.396" stroke="#156EF0" stroke-width="2.34669" stroke-linecap="round" stroke-linejoin="round"/>
</g>
<g opacity="0.15">
<path d="M167.505 117.889H122.527" stroke="#156EF0" stroke-width="2.34669" stroke-linecap="round" stroke-linejoin="round"/>
<path d="M168.287 115.535V119.85" stroke="#156EF0" stroke-width="2.34669" stroke-linecap="round" stroke-linejoin="round"/>
<path d="M121.354 115.535V119.85" stroke="#156EF0" stroke-width="2.34669" stroke-linecap="round" stroke-linejoin="round"/>
</g>
<g opacity="0.15">
<path d="M175.915 109.062L175.915 63.9448" stroke="#156EF0" stroke-width="2.34669" stroke-linecap="round" stroke-linejoin="round"/>
<path d="M178.262 109.847L173.959 109.847" stroke="#156EF0" stroke-width="2.34669" stroke-linecap="round" stroke-linejoin="round"/>
<path d="M178.262 62.7686L173.959 62.7686" stroke="#156EF0" stroke-width="2.34669" stroke-linecap="round" stroke-linejoin="round"/>
</g>
<path fill-rule="evenodd" clip-rule="evenodd" d="M12.5625 164.978C15.9764 157.963 21.0625 150.913 28.5671 146.737C37.6664 141.232 48.232 136.993 53.9376 134.703C54.8181 134.35 55.5829 134.043 56.2086 133.785L118.34 124.142C123.521 125.642 130.035 131.255 125.401 141.56C126.377 142.043 127.402 142.509 128.473 142.995C137.55 147.12 149.87 152.717 162.279 182.559L154.534 218.076C141.602 223.263 127.489 226.116 112.711 226.116C69.1224 226.116 31.3133 201.297 12.5625 164.978Z" fill="#0C9567"/>
<ellipse cx="115.191" cy="139.901" rx="2.64228" ry="2.65042" fill="#077651"/>
<rect x="114.357" y="140.092" width="1.6671" height="18.6954" rx="0.833548" fill="#077651"/>
<path fill-rule="evenodd" clip-rule="evenodd" d="M222.205 139.966C212.468 179.969 181.512 211.628 141.979 222.263L171.359 147.619C172.584 144.507 175.514 142.398 178.854 142.224L222.205 139.966Z" fill="#1A42A2"/>
<path fill-rule="evenodd" clip-rule="evenodd" d="M220.886 144.893C210.501 180.456 183.16 208.753 148.239 220.38L175.04 152.285C176.265 149.173 179.195 147.064 182.535 146.89L220.886 144.893Z" fill="#002A60"/>
<rect opacity="0.5" width="21.892" height="4.64925" transform="matrix(0.699977 -0.714166 0.712008 0.702172 28.0684 54.8221)" fill="white"/>
<rect opacity="0.5" width="24.3766" height="4.64937" transform="matrix(0.706017 0.708194 -0.706017 0.708194 178.551 37.7317)" fill="white"/>
<rect opacity="0.5" width="22.0613" height="4.64937" transform="matrix(0.706017 -0.708194 0.706018 0.708194 176.346 133.422)" fill="white"/>
<rect opacity="0.5" x="25.3213" y="119.484" width="14.5278" height="4.65652" fill="white"/>
<path d="M138.774 96.9576C138.555 81.9428 137.795 72.2447 137.795 72.2447L101.197 52.1046L87.1522 71.9917C84.3141 75.3861 80.1772 86.22 86.3348 102.4C92.4924 118.579 104.19 124.466 113.407 125.686C138.166 128.446 139.011 113.152 138.774 96.9576Z" fill="#F9B8A4"/>
<path d="M72.0992 127.278L85.9577 98.1605C106.168 79.6109 116.9 99.4788 120.227 112.282L98.9195 154.818L72.0992 127.278Z" fill="#F9B8A4"/>
<ellipse cx="21.6854" cy="20.6305" rx="21.6854" ry="20.6305" transform="matrix(0.960681 -0.277655 0.276081 0.961134 113.521 40.2572)" fill="#522C2C"/>
<ellipse cx="2.02829" cy="2.72017" rx="2.02829" ry="2.72017" transform="matrix(0.997821 0.06598 -0.0655768 0.997847 111.479 85.988)" fill="#522C2C"/>
<ellipse cx="2.02829" cy="2.72017" rx="2.02829" ry="2.72017" transform="matrix(0.997821 0.06598 -0.0655768 0.997847 131.389 86.7585)" fill="#522C2C"/>
<ellipse cx="9.65393" cy="9.61471" rx="9.65393" ry="9.61471" transform="matrix(0.999694 0.0247479 -0.024596 0.999698 87.2998 91.3093)" fill="#F49D82"/>
<path fill-rule="evenodd" clip-rule="evenodd" d="M138.733 104.061C137.236 103.026 135.429 102.4 133.47 102.351C128.14 102.219 123.714 106.416 123.583 111.724C123.453 117.015 127.639 121.413 132.944 121.573C137.26 117.547 138.464 111.164 138.733 104.061Z" fill="#F49D82"/>
<path d="M104.901 102.001L117.824 107.353C118.331 107.563 118.509 108.194 118.146 108.606C112.622 114.862 102.208 110.938 103.795 102.567C103.89 102.066 104.43 101.806 104.901 102.001Z" fill="white"/>
<path d="M100.73 80.2693L83.8026 80.316" stroke="white" stroke-width="1.70625"/>
<path d="M114.802 70.3642C111.187 70.4493 107.662 71.216 106.107 71.7699C103.829 72.476 104.281 74.5893 106.058 74.6192L118.083 74.2354C119.873 73.975 120.209 72.7878 120.121 72.2553C119.916 70.5754 117.618 70.298 114.802 70.3642Z" fill="#522C2C"/>
<path d="M131.77 71.9827C134.442 72.3013 136.995 73.2741 138.104 73.9121C139.738 74.7448 139.242 76.7617 137.924 76.6745L129.046 75.5172C127.74 75.148 127.581 73.9763 127.687 73.4664C127.966 71.853 129.69 71.7345 131.77 71.9827Z" fill="#522C2C"/>
<path d="M104.702 157.921L76.8205 117.302C63.8831 112.932 55.6011 124.712 55.2812 134.177C65.8028 137.648 81.7505 145.56 93.6616 151.884C98.0461 154.211 101.884 156.324 104.702 157.921Z" fill="#0C9567"/>
<path d="M55.2812 134.179C60.7096 135.97 67.5823 138.943 74.5998 142.27" stroke="#077651" stroke-width="1.27969"/>
<ellipse cx="81.862" cy="138.36" rx="2.64228" ry="2.65042" fill="#077651"/>
<rect x="81.0283" y="138.552" width="1.6671" height="41.6388" rx="0.833548" fill="#077651"/>
<path d="M92.4203 113.081C98.8427 121.022 107.055 124.334 113.501 125.707L110.796 131.054C99.0369 127.285 93.3516 119.317 91.1713 113.667C90.8423 112.815 91.8457 112.37 92.4203 113.081Z" fill="#DB8C74"/>
<path d="M124.406 87.5454C124.406 87.5454 124.922 94.7227 125.242 99.006C125.561 103.289 119.63 103.084 115.656 98.9335" stroke="#DB8C74" stroke-width="1.27969" stroke-linecap="round"/>
<path d="M121.499 84.4702C121.881 80.7431 120.001 79.7299 118.025 79.0485C116.326 78.4627 111.291 77.4963 105.201 78.0253C102.774 78.3292 100.432 78.98 100.201 82.5668C100.035 85.1706 100.252 88.6028 102.398 90.8702C104.642 93.241 110.384 94.3295 114.666 93.4344C117.874 92.6715 119.473 90.8459 120.428 88.6918C121.005 87.2921 121.37 85.73 121.499 84.4702Z" stroke="white" stroke-width="1.70625"/>
<path d="M145.587 85.8509C145.94 82.2866 144.208 81.3185 142.387 80.6677C140.821 80.1083 136.179 79.2644 131.057 79.7276C128.82 80.0193 126.66 80.6427 126.446 84.0728C126.292 86.5628 126.49 89.8448 128.467 92.0121C130.535 94.2783 135.645 95.3259 139.774 94.3731C142.301 93.6987 143.72 91.7797 144.598 89.8884C145.13 88.5497 145.467 87.0556 145.587 85.8509Z" stroke="white" stroke-width="1.70625"/>
<path d="M120.958 81.1645L126.968 81.5619" stroke="white" stroke-width="1.70625"/>
<path d="M119.035 149.481C122.203 146.969 124.222 143.854 125.428 141.567L129.495 143.458C128.422 145.081 124.679 148.571 119.035 149.481Z" fill="#077651"/>
<path d="M47.2654 169.597L55.3191 209.849" stroke="#077651" stroke-width="1.27969"/>
<path d="M49.8232 181.872L52.7904 177.102L55.7576 172.332" stroke="#077651" stroke-width="1.27969"/>
<path d="M139.622 173.589L138.465 222.706" stroke="#077651" stroke-width="1.27969"/>
<path d="M89.1528 51.7853C96.4442 32.0176 119.259 36.7574 126.106 43.666L122.262 61.3081C115.57 69.4959 103.696 65.51 99.1255 63.0931C99.5515 76.5525 91.126 82.5109 87.4777 84.2701L75.1478 72.9738C76.1306 56.2218 85.8896 52.2925 89.1528 51.7853Z" fill="#522C2C"/>
<path d="M89.1251 51.753C82.0727 54.919 80.1792 67.7708 80.1141 73.801C75.5371 78.1511 72.9935 74.5328 72.2939 72.1799C72.5025 53.0577 84.9046 46.1701 92.6836 45.2484C90.4075 48.4177 89.8898 49.9745 89.1251 51.753Z" fill="#156EF0"/>
<ellipse cx="13.5559" cy="19.4181" rx="13.5559" ry="19.4181" transform="matrix(0.990566 -0.13704 0.136214 0.990679 60.6914 73.2832)" fill="#156EF0"/>
<path fill-rule="evenodd" clip-rule="evenodd" d="M64.2505 81.1365C65.7954 78.3523 68.1309 76.4541 70.9337 76.0664C76.7711 75.2588 82.4251 81.3086 83.5623 89.5791C84.6994 97.8495 80.8891 105.209 75.0517 106.016C72.061 106.43 69.1184 105.044 66.8067 102.481C65.0929 99.6951 63.8542 96.2859 63.3363 92.5193C62.7711 88.4086 63.1473 84.4746 64.2505 81.1365Z" fill="#6BA7FF"/>
<path d="M291.233 142.769L296.359 136.921L367.176 164.03C364.071 169.494 354.003 178.865 339.068 175.148C323.234 171.208 301.772 153.103 291.233 142.769Z" fill="#679352"/>
<path d="M298.76 96.3681C295.473 90.9857 292.365 92.9535 291.551 93.8764L284.724 116.62C291.995 121.501 306.537 128.972 306.537 119.815C306.537 110.658 305.272 107.427 303.883 104.908C303.033 103.365 301.66 101.118 298.802 96.4367L298.76 96.3681Z" fill="#F9B8A4"/>
<path d="M265.14 126.155L285.989 128.795L291.551 105.414L251.587 101.79C249.357 101.825 248.541 103.503 248.952 105.676C250.03 110.347 252.263 115.391 254.242 119.207C256.889 124.313 261.492 125.646 265.14 126.155Z" fill="#F9B8A4"/>
<path d="M248.486 93.9442C247.628 91.9876 248.874 89.7502 250.99 89.4495L287.212 84.3008C288.626 84.0998 290.002 84.8521 290.596 86.1502L299.955 106.605C300.813 108.479 299.718 110.667 297.704 111.105L262.217 118.821C260.718 119.147 259.197 118.372 258.581 116.967L248.486 93.9442Z" fill="#002A60"/>
<path d="M252.321 94.9044C251.452 92.9553 252.681 90.7125 254.791 90.3953L286.401 85.6458C287.821 85.4323 289.211 86.1841 289.809 87.4898L297.549 104.379C298.408 106.254 297.311 108.445 295.295 108.881L264.345 115.581C262.853 115.904 261.341 115.137 260.719 113.744L252.321 94.9044Z" fill="white"/>
<path d="M338.669 135.204L353.209 91.2166C361.903 86.7333 376.424 94.0569 382.598 98.2791L361.016 142.344L338.669 135.204Z" fill="#679352"/>
<path d="M356.264 95.9673L338.589 79.5523L356.652 59.818L380.224 72.023C380.683 81.1587 378.631 103.944 366.753 122C349.427 120.341 352.541 103.954 356.264 95.9673Z" fill="#F9B8A4"/>
<path d="M304.547 47.9532C295.771 26.3691 310.076 17.205 322.698 7.6792L355.94 13.111L372.329 51.1535L352.442 69.4417C339.939 90.4429 318.485 100.758 312.365 72.9204C308.348 72.9204 303.719 73.1853 305.438 67.4519C308.055 58.723 308.559 57.4164 307.072 53.6801L304.547 47.9532Z" fill="#F9B8A4"/>
<path d="M305.16 23.9973C307.832 34.5566 319.56 35.4379 329.838 38.1412C337.638 39.9473 342.003 44.0899 346.019 49.1418C348.907 51.2845 350.791 49.9263 351.718 51.4592C353.798 60.6215 356.676 69.1706 365.488 67.7661C359.969 79.4367 366.199 88.3283 372.033 90.2787L395.535 91.8974C411.875 94.0666 414.518 71.1691 399.143 66.9935C412.41 51.4592 394.516 31.5116 378.023 30.0942C361.786 -13.7825 332.256 1.55747 322.648 7.42141C314.172 13.6382 308.455 18.6109 305.16 23.9973Z" fill="#442525"/>
<ellipse cx="332.332" cy="62.0335" rx="9.30119" ry="9.32987" fill="#F49D82"/>
<ellipse cx="1.89354" cy="2.82975" rx="1.89354" ry="2.82975" transform="matrix(0.884853 -0.46587 0.463626 0.886031 312.555 54.4689)" fill="#442525"/>
<path d="M308.085 47.0369C309.165 43.3233 319.077 43.537 322.347 44.22C324.652 44.5872 324.926 46.8197 321.906 47.1975C321.906 47.1975 313.762 48.5083 311.302 48.7305C309.222 48.9182 307.813 48.3608 308.085 47.0369Z" fill="#442525"/>
<ellipse cx="355.593" cy="46.5347" rx="9.69141" ry="12.2076" fill="#F9B8A4"/>
<ellipse cx="4.28412" cy="4.97621" rx="4.28412" ry="4.97621" transform="matrix(0.928197 0.37209 -0.370119 0.928984 352.941 40.2904)" fill="white"/>
<path d="M353.772 44.6907L356.874 46.0148L352.016 57.4661C351.653 58.3235 350.663 58.7221 349.807 58.3565C348.95 57.9908 348.551 56.9993 348.914 56.1419L353.772 44.6907Z" fill="white"/>
<ellipse cx="462.642" cy="231.838" rx="97.3581" ry="97.6583" fill="#D9D4F8"/>
<path fill-rule="evenodd" clip-rule="evenodd" d="M515.386 313.932L474.744 291.651L449.901 259.359L444.995 217.27L496.838 204.792C503.459 205.865 520.198 210.895 534.186 222.435C541.779 228.699 549.731 242.113 556.878 256.458C550.667 280.44 535.599 300.839 515.386 313.932Z" fill="#B8390E"/>
<path d="M423.639 259.288C436.172 237.256 442.563 231.779 445.293 229.539L466.389 267.489L450.453 289.847L419.334 267.489L423.639 259.288Z" fill="#B8390E"/>
<path d="M439.64 220.904L437.14 193.769L472.852 158.126L493.207 190.276C493.892 203.142 489.719 230.797 468.435 237.46C448.001 243.185 440.504 231.254 439.64 220.904Z" fill="#F9B8A4"/>
<path d="M441.597 154.121C422.054 172.507 425.676 192.312 429.946 198.618C448.261 194.213 464.381 179.369 470.78 171.471C475.746 170.364 479.167 173.828 478.384 178.936C475.791 195.839 481.156 202.125 484.238 196.554C487.575 198.845 494.941 200.841 497.704 190.505C500.467 180.17 500.145 170.555 499.639 167.04C497.373 152.962 485.48 152.837 480.849 154.628C469.614 139.797 451.236 145.052 441.597 154.121Z" fill="#341C1C"/>
<path d="M497.449 185.645C485.587 182.939 479.705 198.38 486.094 210.529L496.601 208.62C506.27 201.192 504.974 187.555 497.449 185.645Z" fill="#F9B8A4"/>
<ellipse cx="471.677" cy="208.678" rx="8.8487" ry="8.87598" fill="#F49D82"/>
<path fill-rule="evenodd" clip-rule="evenodd" d="M439.053 214.526L439.64 220.905C439.905 224.07 440.789 227.384 442.475 230.295C446.447 229.787 449.518 226.385 449.518 222.263C449.518 217.79 445.903 214.165 441.445 214.165C440.612 214.165 439.809 214.291 439.053 214.526Z" fill="#F49D82"/>
<path d="M503.406 212.94C503.008 215.102 501.412 222.201 499.336 230.242C499.108 231.126 498.745 231.972 498.236 232.73C494.048 238.965 488.428 244.602 483.844 248.598C481.387 250.74 479.227 252.41 477.745 253.449C474.451 236.295 489.856 218.949 497.971 212.421C499.23 206.985 504.241 208.404 503.406 212.94Z" fill="#F9B8A4"/>
<path d="M488.303 228.282L492.496 211.176C493.16 204.449 494.257 202.853 495.993 202.757C498.138 202.757 498.541 204.736 498.641 206.014C499.12 212.1 496.336 225.771 496.071 226.974L488.303 228.282Z" fill="#F9B8A4"/>
<path d="M494.248 206.23C493.494 214.137 491.306 223.823 490.628 226.736L481.122 228.136L488.84 206.832C490.525 201.229 494.649 202.022 494.248 206.23Z" fill="#F9B8A4"/>
<path d="M489.802 210.233C488.171 216.39 485.474 223.024 484.33 225.572L495.297 223.979L483.525 247.913L504.216 287.131L515.562 308.636L477.334 307.366L463.62 252.66C460.168 239.49 466.567 234.54 471.938 229.443C473.824 227.653 476.621 225.201 478.535 221.858C479.125 220.71 480.949 217.068 483.525 211.686C484.525 209.596 485.568 207.871 487.007 207.321C488.596 206.714 490.372 207.501 489.802 210.233Z" fill="#F9B8A4"/>
<path d="M501.843 250.707L490.257 278.351L511.067 314.796L531.989 275.078L501.843 250.707Z" fill="#F9B8A4"/>
<path d="M419.521 292.154L411.681 266.572C397.334 269.175 399.695 286.579 402.669 294.956L419.521 292.154Z" fill="#F9B8A4"/>
<ellipse cx="406.136" cy="195.596" rx="15.3271" ry="15.3743" fill="white"/>
<path d="M417.165 212.069C417.165 212.749 416.43 213.175 415.843 212.835L410.361 209.66L417.165 205.72L417.165 212.069Z" fill="white"/>
<path fill-rule="evenodd" clip-rule="evenodd" d="M517.232 312.711C501.663 323.307 482.872 329.498 462.639 329.498C442.407 329.498 423.616 323.307 408.046 312.711H517.232Z" fill="#AB8151"/>
<path fill-rule="evenodd" clip-rule="evenodd" d="M531.75 300.619C528.485 303.919 524.987 306.986 521.282 309.794H489.562V301.398L531.75 300.619Z" fill="white"/>
<path d="M446.616 303.24C463.937 297.174 484.572 299.29 489.935 301.797V310.62L447.244 311.544C447.171 311.103 446.831 309.029 446.047 304.208C445.979 303.79 446.217 303.38 446.616 303.24Z" fill="white"/>
<path d="M448.104 301.136L449.927 303.558C463.55 304.653 490.797 305.884 490.797 302.046C473.818 292.866 456.474 295.706 448.379 299.864C447.907 300.106 447.785 300.713 448.104 301.136Z" fill="white"/>
<path fill-rule="evenodd" clip-rule="evenodd" d="M522.558 308.812C520.744 310.235 518.879 311.595 516.965 312.888H442.732C441.607 312.888 440.694 311.975 440.694 310.85C440.694 309.725 441.607 308.812 442.732 308.812H522.558Z" fill="#1A42A2"/>
<path d="M405.43 187.022C405.775 186.541 406.491 186.541 406.837 187.022L409.971 191.392L415.132 192.977C415.707 193.154 415.931 193.847 415.569 194.327L412.344 198.595L412.41 203.931C412.418 204.527 411.835 204.952 411.27 204.763L406.133 203.047L400.996 204.763C400.431 204.952 399.849 204.527 399.856 203.931L399.923 198.595L396.697 194.327C396.335 193.847 396.56 193.154 397.134 192.977L402.295 191.392L405.43 187.022Z" fill="#FFC26A"/>
<path d="M394.763 227.82C393.928 225.279 395.529 222.582 398.16 222.099L419.964 218.096C422.138 217.697 424.269 218.97 424.948 221.072L439.146 264.995C439.982 267.579 438.305 270.301 435.62 270.716L413.85 274.082C411.721 274.411 409.668 273.153 408.995 271.107L394.763 227.82Z" fill="#1A42A2"/>
<path d="M394.758 227.803C393.924 225.268 395.516 222.576 398.14 222.085L416.62 218.626C418.798 218.219 420.937 219.491 421.619 221.599L435.813 265.51C436.648 268.094 434.971 270.815 432.287 271.23L413.85 274.082C411.721 274.411 409.668 273.153 408.995 271.106L394.758 227.803Z" fill="#002A60"/>
<path d="M413.755 231.864C411.497 233.7 404.123 239.675 401.675 242.435L408.59 251.094L419.376 233.7C423.475 229.493 418.93 227.657 413.755 231.864Z" fill="#F9B8A4"/>
<path d="M420.953 232.406C414.968 236.466 410.028 243.009 406.499 247.262C406.499 252.658 409.377 253.855 410.816 253.779C411.951 252.184 417.409 243.54 423.28 237.104C426.466 233.612 423.893 230.529 420.953 232.406Z" fill="#F9B8A4"/>
<path d="M419.77 243.817L412.166 251.581C398.846 253.057 402.142 282.462 410.97 274.274C418.033 267.724 417.731 259.108 416.697 255.619C421.637 249.356 427.595 244.352 424.639 242.014C423.167 241.049 421.535 242.014 419.77 243.817Z" fill="#F9B8A4"/>
<path d="M427.407 307.403L444.081 285.133L425.911 272.221L411.586 274.449L410.881 248.794L403.229 242.267C407.488 234.956 413.108 228.645 410.881 226.471C409.72 225.338 407.813 225.976 406.604 227.283C402.936 230.904 395.629 239.965 394.581 244.246C392.516 254.517 393.721 267.801 394.581 273.159L393.787 281.395C390.024 316.262 404.926 317.167 408.344 317.372C412.695 317.633 419.255 317.372 427.407 307.403Z" fill="#F9B8A4"/>
<path d="M548.458 254.261L509.382 232.657L495.915 264.844L534.853 285.795L548.458 254.261Z" fill="#B8390E"/>
<path d="M464.661 211.257L456.196 219.083C455.734 219.509 455.699 220.237 456.178 220.645C458.663 222.763 462.04 223.175 464.955 220.568C468.245 217.624 467.473 213.493 466.127 211.37C465.802 210.856 465.107 210.845 464.661 211.257Z" fill="white"/>
<path d="M406.134 246.588C409.663 242.335 416.429 235.658 420.953 232.406" stroke="#DB8C74" stroke-width="1.11429"/>
<path d="M448.568 258.28L461.454 274.402C460.861 275.228 459.345 277.311 457.928 279.162C452.302 275.229 449.314 263.552 448.568 258.28Z" fill="#8A2807"/>
<path d="M494.521 268.751L503.023 284.866" stroke="#DB8C74" stroke-width="1.11429"/>
<path d="M445.93 303.485C456.659 299.572 468.77 298.871 477.772 299.502" stroke="#D9D4F8" stroke-width="1.11429"/>
<path d="M548.458 254.261L534.853 285.795L528.306 282.518M495.915 264.844L506.876 238.646" stroke="#8A2807" stroke-width="1.39286"/>
<path d="M483.844 248.599C483.971 248.796 484.568 249.865 485.941 252.573C483.221 253.43 480.445 252.708 479.396 252.239C480.666 251.273 482.188 250.043 483.844 248.599Z" fill="#DB8C74"/>
<path d="M496.071 226.974C496.335 225.771 499.12 212.1 498.641 206.013C498.541 204.736 498.137 202.757 495.993 202.757C495.199 202.801 494.539 203.158 493.993 204.175" stroke="#DB8C74" stroke-width="1.11429"/>
<path d="M484.33 225.572C485.475 223.024 488.171 216.39 489.803 210.233" stroke="#DB8C74" stroke-width="1.11429"/>
<path d="M490.626 226.736C491.305 223.823 493.492 214.137 494.246 206.23C494.647 202.022 490.523 201.229 488.838 206.832" stroke="#DB8C74" stroke-width="1.11429"/>
<path d="M489.803 210.233C490.373 207.502 488.597 206.714 487.007 207.321C485.569 207.871 484.526 209.596 483.525 211.686C480.95 217.068 479.126 220.71 478.536 221.858C476.622 225.201 473.824 227.653 471.938 229.443C469.244 232 466.291 234.52 464.452 238.06" stroke="#DB8C74" stroke-width="1.11429"/>
<rect x="468.356" y="60.783" width="49.2724" height="49.4243" rx="24.6362" fill="#B3D1FC"/>
<path d="M505.311 88.6206C505.311 95.4237 499.796 100.939 492.993 100.939C486.19 100.939 480.675 95.4237 480.675 88.6206V87.6033C480.675 87.0313 481.139 86.5676 481.711 86.5676H504.276C504.848 86.5676 505.311 87.0313 505.311 87.6033V88.6206Z" fill="white"/>
<path d="M499.152 78.7661C499.152 82.1677 496.395 84.9252 492.993 84.9252C489.592 84.9252 486.834 82.1677 486.834 78.7661C486.834 75.3646 489.592 72.6071 492.993 72.6071C496.395 72.6071 499.152 75.3646 499.152 78.7661Z" fill="white"/>
<g opacity="0.5">
<rect x="416.973" y="32.9781" width="36.5934" height="36.4166" rx="18.2083" fill="#7260E0"/>
</g>
<path d="M438.124 40.7459C438.124 40.5134 437.976 40.3033 437.749 40.2123C437.523 40.1212 437.26 40.1667 437.082 40.3278L434.894 42.311C431.637 45.2637 428.885 48.6744 426.736 52.4216C426.685 52.5059 426.656 52.6033 426.656 52.707C426.656 53.0273 426.932 53.287 427.271 53.287H432.575V61.6262C432.575 61.8559 432.718 62.0639 432.941 62.1568C433.164 62.2496 433.424 62.2097 433.604 62.055L434.583 61.2144C438.009 58.2718 440.917 54.8338 443.197 51.0295L443.802 50.0193C443.91 49.8397 443.908 49.6198 443.798 49.4416C443.688 49.2635 443.486 49.1539 443.267 49.1539H438.124V40.7459Z" fill="white"/>
<g opacity="0.5">
<rect x="415.87" y="81.3235" width="45.1548" height="44.9366" rx="22.4683" fill="#FDB858"/>
<path d="M430.409 96.3012C430.409 94.9349 431.517 93.8273 432.883 93.8273H444.016C445.382 93.8273 446.49 94.9349 446.49 96.3012V111.145C446.49 112.511 445.382 113.619 444.016 113.619H430.409V96.3012Z" fill="white"/>
<path d="M443.398 100.626C443.398 101.036 443.066 101.368 442.656 101.368H434.245C433.835 101.368 433.502 101.036 433.502 100.626C433.502 100.216 433.835 99.8834 434.245 99.8834H442.656C443.066 99.8834 443.398 100.216 443.398 100.626Z" fill="#FFD08F"/>
<path d="M443.398 103.718C443.398 104.128 443.066 104.46 442.656 104.46H434.245C433.835 104.46 433.502 104.128 433.502 103.718C433.502 103.308 433.835 102.976 434.245 102.976H442.656C443.066 102.976 443.398 103.308 443.398 103.718Z" fill="#FFD08F"/>
<path d="M436.595 106.811C436.595 107.22 436.263 107.553 435.853 107.553H434.368C433.958 107.553 433.626 107.22 433.626 106.811C433.626 106.401 433.958 106.068 434.368 106.068H435.853C436.263 106.068 436.595 106.401 436.595 106.811Z" fill="#FFD08F"/>
</g>
<g opacity="0.5">
<ellipse cx="152.647" cy="282.688" rx="28.0746" ry="28.1611" fill="#F67474"/>
<path d="M164.306 285.131C165.917 283.894 165.917 281.482 164.306 280.245C159.437 276.509 154 273.563 148.198 271.52L147.138 271.146C145.111 270.432 142.969 271.793 142.694 273.869C141.927 279.669 141.927 285.707 142.694 291.508C142.969 293.584 145.111 294.944 147.138 294.23L148.198 293.857C154 291.813 159.437 288.868 164.306 285.131Z" fill="white"/>
</g>
<ellipse cx="94.4612" cy="256.504" rx="21.5657" ry="21.6322" fill="#B3D1FC"/>
<path d="M107.07 253.236C107.07 252.391 106.387 251.707 105.545 251.707H99.4467C98.6047 251.707 97.9221 252.391 97.9221 253.236C97.9221 254.081 98.6047 254.765 99.4467 254.765H105.545C106.387 254.765 107.07 254.081 107.07 253.236Z" fill="white"/>
<path d="M102.496 257.824C103.338 257.824 104.021 257.14 104.021 256.295V250.178C104.021 249.333 103.338 248.648 102.496 248.648C101.654 248.648 100.972 249.333 100.972 250.178L100.972 256.295C100.972 257.14 101.654 257.824 102.496 257.824Z" fill="white"/>
<path d="M83.5877 264.201C83.1969 265.189 83.9228 266.262 84.9827 266.262H85.6038C86.2357 266.262 86.7999 265.865 87.0149 265.269L87.9247 262.747H95.111L96.0432 265.278C96.261 265.869 96.8227 266.262 97.4509 266.262H98.0764C99.1371 266.262 99.8631 265.188 99.4707 264.199L93.6909 249.64C93.4636 249.067 92.9112 248.691 92.2967 248.691H90.7405C90.1253 248.691 89.5724 249.068 89.3455 249.641L83.5877 264.201ZM88.9815 259.778L91.4824 252.923C91.4878 252.908 91.502 252.898 91.5179 252.898C91.5337 252.898 91.5479 252.908 91.5534 252.923L94.0542 259.778H88.9815Z" fill="white"/>
<path fill-rule="evenodd" clip-rule="evenodd" d="M77.78 220.532C77.2393 217.335 81.5701 213.823 84.5197 212.028L90.0147 209.934C89.9645 209.524 89.904 209.039 89.8364 208.498C89.3927 204.947 88.6467 198.975 88.5603 195.835C88.4357 191.312 88.2886 181.285 89.1742 171.002C89.5778 166.316 91.5272 165.313 92.9496 165.848C94.3571 166.377 94.4517 169.682 94.5367 172.652C94.5642 173.613 94.5907 174.539 94.6604 175.324C94.7377 176.196 94.7826 177.068 94.828 177.949C94.9722 180.75 95.1215 183.649 96.3293 186.932L100.313 185.023L116.173 196.593C118.287 190.199 122.918 183.945 126.199 186.185C127.973 187.654 126.124 192.443 124.132 197.114C122.43 201.105 121.088 204.948 119.99 208.09C118.907 211.189 118.063 213.607 117.345 214.814C114.411 220.574 110.409 224.03 103.159 225.718C94.3849 224.922 85.8896 223.157 77.78 220.532Z" fill="#F9B8A4"/>
<path d="M97.5083 163.744C95.1533 169.537 94.9592 182.203 95.1565 187.812C96.2307 193.895 101.215 193.748 103.572 192.915L102.849 185.662C100.974 176.385 101.501 169.063 102.556 163.987C103.483 159.525 99.4699 158.243 97.5083 163.744Z" fill="#F9B8A4"/>
<path d="M105.739 161.212C103.273 167.487 102.121 176.007 101.853 179.482L101.732 190.124C105.08 192.994 111.429 196.579 110.037 187.963C108.298 177.193 109.428 171.504 110.466 164.45C110.823 162.632 111.107 160.794 110.623 159.753C109.687 157.741 106.994 158.021 105.739 161.212Z" fill="#F9B8A4"/>
<path d="M114.824 166.907C112.253 170.702 110.314 177.149 109.395 180.404C100.103 193.594 106.564 203.186 110.956 206.333L116.476 198.637C116.131 194.927 115.335 190.031 115.335 186.391C115.335 182.05 116.053 177.502 118.257 170.87C120.096 165.337 116.235 164.666 114.824 166.907Z" fill="#F9B8A4"/>
<path d="M111.305 182.081C109.322 182.029 104.565 182.189 99.8332 183.141" stroke="#DB8C74" stroke-width="1.33239" stroke-linecap="round"/>
<path d="M115.555 196.215C113.365 197.023 107.65 200.739 105.985 207.256" stroke="#DB8C74" stroke-width="1.33239" stroke-linecap="round"/>
<path d="M96.5986 186.382C98.1302 189.284 99.781 193.243 99.531 198.214" stroke="#DB8C74" stroke-width="1.33239" stroke-linecap="round"/>
<path d="M91.4064 217.445C90.6554 213.415 90.0552 209.879 90.0552 209.879L87.1221 211.045C87.1221 211.045 88.1938 214.903 91.4064 217.445Z" fill="#DB8C74"/>
<path fill-rule="evenodd" clip-rule="evenodd" d="M88.6345 223.529C82.0027 222.082 75.5887 220.049 69.4492 217.487L86.0243 211.461C85.695 215.028 86.4565 219.187 88.6345 223.529Z" fill="#077651"/>
<path d="M327.737 65.2693L320.231 72.2078C319.822 72.5861 319.791 73.2317 320.215 73.5935C322.419 75.4711 325.414 75.8364 327.998 73.5248C330.915 70.9149 330.231 67.2523 329.037 65.3691C328.748 64.9135 328.133 64.9039 327.737 65.2693Z" fill="white"/>
<path d="M347.657 71.0751C346.577 76.0289 344.17 79.9987 342.014 82.5857L346.866 87.2236C349.975 82.8493 349.959 75.8623 348.177 71.0257C348.082 70.7673 347.715 70.806 347.657 71.0751Z" fill="#DB8C74"/>
<path d="M356.121 96.3057L359.407 99.1592" stroke="#DB8C74" stroke-width="0.835714"/>
<path d="M293.481 105.983C294.286 105.792 294.719 104.925 294.386 104.168L287.662 88.877C287.415 88.3162 286.816 87.9918 286.21 88.0907L257.035 92.8506C256.18 92.9901 255.688 93.889 256.034 94.6811L263.505 111.794C263.806 112.482 264.562 112.858 265.294 112.684L293.481 105.983Z" fill="#E6F1FF"/>
<ellipse opacity="0.7" cx="3.6742" cy="3.69536" rx="3.6742" ry="3.69536" transform="matrix(-0.97089 0.239528 0.238141 0.971231 277.295 91.4803)" fill="#A4CAFF"/>
<path opacity="0.7" d="M269.996 101.977C269.651 102.062 269.437 102.412 269.562 102.744C270.181 104.385 271.583 105.786 273.069 106.691C274.737 107.707 276.737 108.015 278.629 107.549C280.521 107.082 282.15 105.878 283.158 104.202C284.056 102.709 284.107 100.95 283.778 99.2385C283.711 98.8897 283.361 98.6793 283.016 98.7644L269.996 101.977Z" fill="#A4CAFF"/>
<path d="M290.967 113.952C295.899 114.385 301.993 116.938 304.423 118.16C310.151 122.959 299.976 130.411 294.172 133.537L284.149 128.464L278.483 121.76C266.359 118.548 261.924 115.857 261.067 113.572C260.643 112.025 261.38 109.15 268.863 110.792C273.858 111.743 281.387 112.897 287.334 113.579C288.635 113.728 289.861 113.855 290.967 113.952Z" fill="#F9B8A4"/>
<path d="M304.423 118.16C301.993 116.938 295.9 114.385 290.968 113.952C289.861 113.855 288.636 113.728 287.335 113.579" stroke="#DB8C74" stroke-width="0.835714" stroke-linecap="round"/>
<path d="M369.647 92.9466L351.177 134.545L304.479 118.147L290.836 134.023C300.775 144.349 316.828 156.568 326.585 162.196C361.672 182.434 377.433 169.966 387.768 153.887C398.686 136.901 404.334 96.703 392.531 85.0234C384.38 77.3238 374.209 82.3865 369.647 92.9466Z" fill="#7AA963"/>
<path d="M276.527 121.496L266.641 117.768L262.292 118.799C265.34 120.6 272.381 121.496 276.527 121.496Z" fill="#DB8C74"/>
<ellipse cx="267.808" cy="251.299" rx="81.45" ry="81.7011" fill="#B5E8D9"/>
<path d="M333.657 203.205C318.845 182.834 294.867 169.598 267.807 169.598C258.076 169.598 248.744 171.309 240.093 174.449L236.821 190.772V275.644H333.657V203.205Z" fill="#E2E9F3"/>
<path d="M244.325 202.942H237.105C234.653 202.942 232.665 204.94 232.665 207.404V214.814C232.665 217.264 234.632 219.257 237.07 219.276L270.989 219.567C291.813 218.948 271.852 217.506 268.443 216.469C268.163 216.384 267.944 216.203 267.737 215.996L262.485 210.757C261.653 209.927 260.529 209.462 259.357 209.462H254.519C253.348 209.462 252.223 208.996 251.392 208.166L247.453 204.237C246.621 203.408 245.497 202.942 244.325 202.942Z" fill="white" fill-opacity="0.5"/>
<path d="M313.398 250.396C313.398 269.904 306.392 277.527 297.748 277.527C289.105 277.527 282.098 269.904 282.098 250.396C282.098 230.888 292.531 206.883 297.748 206.883C302.617 206.883 313.398 230.888 313.398 250.396Z" fill="#799ECC"/>
<path fill-rule="evenodd" clip-rule="evenodd" d="M237.001 175.644C233.396 182.807 231.366 190.904 231.366 199.476V275.847C231.366 277.649 232.823 279.111 234.62 279.111H333.719C335.516 279.111 336.973 277.649 336.973 275.847V208.128C335.006 204.965 332.83 201.946 330.463 199.091C330.464 199.219 330.465 199.348 330.465 199.476V272.583H237.874V199.476C237.874 189.376 241.089 180.029 246.547 172.409C243.279 173.293 240.092 174.376 237.001 175.644Z" fill="white"/>
<path fill-rule="evenodd" clip-rule="evenodd" d="M287.305 171.954V275.848H281.033V170.67C283.152 171.017 285.244 171.446 287.305 171.954Z" fill="white"/>
<path d="M337.063 231.721L337.063 238.025L235.874 238.025L235.874 231.721L337.063 231.721Z" fill="white"/>
<path d="M227.733 268.946C248.137 271.809 242.318 249.876 240.061 234.201L246.261 232.656L249.065 256.264V304.58L287.17 292.811C287.438 276.051 281.63 271.511 277.203 268.324C271.959 264.55 272.13 261.065 277.203 258.258C300.348 245.449 294.517 232.033 290.492 225.838C286.468 219.643 284.599 215.018 283.539 210.204C281.008 198.706 276.653 195.495 272.959 193.218C259.487 186.089 248.563 185.944 242.343 187.227C224.161 191.878 219.307 205.92 220.317 222.111C220.848 235.644 221.173 236.034 221.379 243.251C221.561 249.638 219.999 255.466 214.83 259.248C204.698 265.856 202.856 271.7 205.37 279.504C210.383 268.732 220.405 267.666 227.733 268.946Z" fill="#3F2121"/>
<path d="M280.329 217.006C280.211 201.062 272.985 195.97 270.084 195.628L246.055 203.833C242.911 211.425 238.257 229.519 244.792 241.161C251.328 252.803 262.603 253.225 268.502 251.475C276.777 248.708 278.921 241.916 279.615 235.881C280.337 229.593 280.364 221.806 280.329 217.006Z" fill="#F9B8A4"/>
<path d="M253.433 269.797L261.448 249.85L251.845 231.495L237.629 230.433L235.059 254.78L253.433 269.797Z" fill="#F9B8A4"/>
<path fill-rule="evenodd" clip-rule="evenodd" d="M246.178 330.087C231.303 325.987 218.132 317.763 207.961 306.717L205.684 293.898C204.176 285.721 203.558 275.299 211.427 270.492L240.352 250.919L257.155 260.512L254.921 266.43L264.305 271.523C274.708 277.454 278.378 280.26 281.862 288.858L263.278 321.327L246.178 330.087Z" fill="#156EF0"/>
<path d="M286.628 324.83C288.93 322.046 286.717 302.249 284.287 298.257C267.768 281.916 273.428 318.92 275.637 322.046L286.628 324.83Z" fill="#0453C7"/>
<path d="M305.133 248.402C305.553 247.474 306.411 246.819 307.417 246.658L324.073 243.994C325.876 243.706 327.266 245.553 326.49 247.205L310.899 280.433H290.648L305.133 248.402Z" fill="#1A42A2"/>
<path d="M307.164 251.171C307.542 250.336 308.308 249.742 309.211 249.585L326.644 246.551L310.746 280.432H293.932L307.164 251.171Z" fill="#002A60"/>
<ellipse cx="256.487" cy="233.641" rx="6.14938" ry="6.16834" fill="#F49D82"/>
<path fill-rule="evenodd" clip-rule="evenodd" d="M279.478 236.95C279.064 236.862 278.636 236.816 278.196 236.816C274.8 236.816 272.047 239.578 272.047 242.984C272.047 245.01 273.02 246.807 274.523 247.931C277.667 244.894 278.92 240.826 279.478 236.95Z" fill="#F49D82"/>
<ellipse cx="1.74636" cy="2.1769" rx="1.74636" ry="2.1769" transform="matrix(0.998842 0.0481148 -0.0478201 0.998856 263.705 222.955)" fill="#3F2121"/>
<ellipse cx="277.794" cy="226.224" rx="1.54307" ry="1.92352" fill="#3F2121"/>
<path d="M269.526 215.039C269.214 213.655 264.579 214.12 262.663 214.446L261.413 216.84C264.488 216.764 269.896 216.685 269.526 215.039Z" fill="#3F2121"/>
<path d="M275.673 215.714C276.482 214.55 280.6 216.733 282.252 217.76L282.511 220.449C279.691 219.216 274.712 217.099 275.673 215.714Z" fill="#3F2121"/>
<path d="M289.252 282.716L276.116 291.784C274.124 295.779 273.812 309.208 276.116 313.516C283.684 306.936 297.692 294.115 305.91 287.81C308.307 285.972 309.518 284.952 311.307 282.956C314.014 279.934 318.141 274.622 318.885 272.282C319.415 270.62 318.023 270.184 317.087 270.971L304.675 274.864L311.42 263.45C312.376 261.789 314.305 258.929 312.895 258.006C311.884 257.344 310.821 258.414 310.043 259.251C307.565 262.105 302.293 268.082 300.034 270.525C298.081 272.441 296.379 270.837 297.492 267.661C298.335 265.256 300.05 260.943 298.796 259.686C297.881 258.769 296.843 259.48 296.309 260.49L294.521 263.809C291.799 268.557 291.29 270.999 290.876 273.551L289.252 282.716Z" fill="#F9B8A4"/>
<path d="M318.848 261.21L306.433 270.981C301.623 274.998 305.034 277.019 307.341 277.528C308.332 276.569 309.882 275.069 311.63 273.372C313.862 271.206 316.416 268.719 318.54 266.632C319.274 265.977 319.862 265.385 320.33 264.85C322.622 262.236 322.048 261.004 321.542 260.658C320.611 260.021 319.503 260.682 318.848 261.21Z" fill="#F9B8A4"/>
<path d="M320.696 267.615C321.955 265.687 320.724 264.441 320.034 264.531C316.255 266.885 308.362 272.478 307.029 276.014C305.696 279.551 308.336 280.435 309.823 280.435C310.381 279.782 311.006 279.064 311.668 278.309C313.84 275.832 316.414 272.956 318.33 270.666C319.368 269.424 320.214 268.355 320.696 267.615Z" fill="#F9B8A4"/>
<path d="M318.328 270.666C316.412 272.955 313.838 275.832 311.666 278.308" stroke="#DB8C74" stroke-width="0.835714"/>
<path fill-rule="evenodd" clip-rule="evenodd" d="M216.956 315.119C213.127 308.3 210.583 303.556 209.533 301.522L230.518 284.355L246.859 310.063L276.1 291.774C275.53 295.964 279.151 320.285 286.592 324.815L264.321 332.924C246.437 332.167 230.045 325.627 216.956 315.119Z" fill="#156EF0"/>
<path d="M230.518 284.355L246.859 310.063L276.099 291.774" stroke="#0453C7" stroke-width="1.11429"/>
<path d="M227.733 268.949C248.137 271.812 242.318 249.879 240.061 234.204L220.317 222.114C220.848 235.647 221.173 236.037 221.379 243.254C221.561 249.641 219.999 255.469 214.83 259.251C204.698 265.859 202.856 271.703 205.37 279.507C210.383 268.735 220.405 267.669 227.733 268.949Z" fill="#3F2121"/>
<path d="M242.074 224.275C259.752 229.793 266.566 209.861 271.125 194.826L253.354 190.408L229.171 212.496L242.074 224.275Z" fill="#3F2121"/>
<path d="M259.02 255.951C250.973 253.833 247.806 247.841 246.447 244.516C246.33 244.227 246.72 243.994 246.932 244.222C250.751 248.301 255.566 251.521 260.516 252.098L259.02 255.951Z" fill="#DB8C74"/>
<path d="M269.827 224.851C269.415 228.89 265.902 231.811 262.01 231.412C258.119 231.012 255.268 227.438 255.68 223.399C256.092 219.36 259.605 216.439 263.497 216.838C267.388 217.237 270.239 220.811 269.827 224.851Z" stroke="white" stroke-width="1.16976"/>
<path d="M285.29 226.437C284.917 230.089 282.08 232.657 279.085 232.35C276.091 232.043 273.831 228.952 274.203 225.299C274.576 221.647 277.413 219.079 280.408 219.386C283.402 219.693 285.662 222.784 285.29 226.437Z" stroke="white" stroke-width="1.04058"/>
<path d="M270.052 223.001C270.609 222.824 272.275 222.649 274.487 223.367" stroke="white" stroke-width="1.16976" stroke-linecap="round"/>
<path d="M256.135 220.784L239.356 221.542" stroke="white" stroke-width="1.11429"/>
<ellipse cx="6.96431" cy="9.24162" rx="6.96431" ry="9.24162" transform="matrix(0.98496 -0.172785 0.171756 0.985139 227.48 220.023)" fill="#F9B8A4"/>
<path d="M233.592 223.667L238.695 226.403" stroke="#DB8C74" stroke-width="1.17625" stroke-linecap="round"/>
<path d="M236.943 225.591C234.291 225.957 233.963 230.413 237.916 230.726" stroke="#DB8C74" stroke-width="1.17625" stroke-linecap="round"/>
<path d="M273.431 224.042C273.431 224.042 273.828 229.566 274.074 232.863C274.32 236.159 269.756 236.001 266.696 232.807" stroke="#DB8C74" stroke-width="0.984939" stroke-linecap="round"/>
<path d="M269.307 238.099L260.795 234.258C260.329 234.048 259.774 234.253 259.624 234.741C258.84 237.275 259.609 239.933 262.476 241.284C265.715 242.81 268.543 240.914 269.692 239.23C269.97 238.823 269.756 238.302 269.307 238.099Z" fill="white"/>
<path d="M310.247 274.6C312.479 272.433 316.416 268.719 318.54 266.631C319.274 265.977 319.862 265.385 320.331 264.85" stroke="#DB8C74" stroke-width="0.835714"/>
<path d="M235.464 317.579L246.71 310.766L244.817 307.416C237.602 311.615 235.575 315.941 235.464 317.579Z" fill="#0453C7"/>
<path d="M253.405 271.101L255.093 266.561C255.552 266.77 256.921 267.45 258.722 268.494C257.041 270.381 254.477 271.018 253.405 271.101Z" fill="#0453C7"/>
<g opacity="0.2">
<rect x="88.6348" y="292.645" width="26.0205" height="25.8948" rx="12.9474" fill="#0C9567"/>
</g>
<path d="M457.704 188.678C461.92 188.585 465.287 189.693 466.359 190.016C468.492 190.659 468.459 192.268 468.298 192.51C468.046 193.006 467.174 193.253 466.302 193.285C465.136 193.329 462.413 193.377 458.343 193.429C454.273 193.481 453.441 193.102 453.268 192.13C453.153 191.481 453.489 188.77 457.704 188.678Z" fill="#3F2121"/>
<ellipse cx="2.07315" cy="2.49158" rx="2.07315" ry="2.49158" transform="matrix(-0.996476 -0.0838747 -0.0833635 0.996519 461.024 196.37)" fill="#3F2121"/>
<ellipse cx="2.07311" cy="2.49163" rx="2.07311" ry="2.49163" transform="matrix(-0.999811 0.0194496 0.0193302 0.999813 444.898 198.456)" fill="#3F2121"/>
<path d="M448.589 200.174C448.589 200.174 448.073 207.351 447.753 211.635C447.434 215.918 453.365 215.712 457.34 211.562" stroke="#DB8C74" stroke-width="1.27969" stroke-linecap="round"/>
<path d="M495.731 190.724L490.029 195.123" stroke="#DB8C74" stroke-width="1.46228" stroke-linecap="round"/>
<path d="M492.013 193.77C495.34 193.677 496.648 199.075 491.864 200.266" stroke="#DB8C74" stroke-width="1.46228" stroke-linecap="round"/>
<path d="M401.765 242.834L404.979 238.998" stroke="#DB8C74" stroke-width="1.11429"/>
<path d="M412.046 274.205L418.4 291.817" stroke="#DB8C74" stroke-width="1.11429"/>
<path d="M408.898 276.108L411.627 273.667L412.376 274.096L413.178 278.469L408.898 276.108Z" fill="#DB8C74"/>
</svg>
