<svg width="96" height="97" viewBox="0 0 96 97" fill="none" xmlns="http://www.w3.org/2000/svg">
<path d="M67.2 56.1976C71.1765 56.1976 74.4 52.9741 74.4 48.9976C74.4 45.0212 71.1765 41.7976 67.2 41.7976C63.2236 41.7976 60 45.0212 60 48.9976C60 52.9741 63.2236 56.1976 67.2 56.1976Z" stroke="#08BD80" stroke-width="3" stroke-miterlimit="10" stroke-linecap="round" stroke-linejoin="round"/>
<path d="M67.1998 68.0217C68.3346 68.0217 69.436 67.9215 70.5374 67.7213L75.6104 72.6609C77.2458 72.0935 78.8812 71.3926 80.4165 70.4915C81.9851 69.5903 83.4203 68.5557 84.6886 67.4209L82.953 60.5789C84.3548 58.8768 85.4896 56.9076 86.2572 54.805L93.0658 52.8692C93.3996 51.1671 93.5998 49.3982 93.5998 47.6293C93.5998 45.8604 93.4329 44.0581 93.0658 42.3893L86.2572 40.4535C85.4562 38.3509 84.3548 36.3817 82.953 34.6796L84.6886 27.8376C83.3869 26.7028 81.9518 25.6682 80.4165 24.7671C78.8478 23.8659 77.2458 23.1317 75.6104 22.5977L70.5374 27.5372C69.4693 27.3703 68.3346 27.2368 67.1998 27.2368C66.065 27.2368 64.9636 27.337 63.8623 27.5372L58.7892 22.5977C57.1538 23.165 55.5184 23.8659 53.9831 24.7671C52.4145 25.6682 50.9793 26.7028 49.7111 27.8376L51.4466 34.6796C50.0448 36.3817 48.91 38.3509 48.1424 40.4535L41.3338 42.3893C41.0001 44.0915 40.7998 45.8604 40.7998 47.6293C40.7998 49.3982 40.9667 51.2004 41.3338 52.8692L48.1424 54.805C48.9434 56.9076 50.0448 58.8768 51.4466 60.5789L49.7111 67.4209C51.0127 68.5557 52.4478 69.5903 53.9831 70.4915C55.5518 71.3926 57.1538 72.1269 58.7892 72.6609L63.8623 67.7213C64.9636 67.9215 66.065 68.0217 67.1998 68.0217Z" stroke="#3C4852" stroke-width="3" stroke-miterlimit="10" stroke-linecap="round" stroke-linejoin="round"/>
<path d="M62.1714 72.7099L41.6754 45.3739V16.4539H24.8514V45.3739L4.33137 72.7099C-0.396634 79.0219 4.09137 87.9979 11.9874 87.9979H54.5394C62.4114 88.0219 66.8994 79.0219 62.1714 72.7099Z" fill="white" stroke="#3C4852" stroke-width="3" stroke-miterlimit="10" stroke-linecap="round" stroke-linejoin="round"/>
<path d="M23.1714 10.5977H43.3554" stroke="#3C4852" stroke-width="3" stroke-miterlimit="10" stroke-linecap="round" stroke-linejoin="round"/>
<path d="M43.355 78.71H53.771" stroke="#08BD80" stroke-width="3" stroke-miterlimit="10" stroke-linecap="round" stroke-linejoin="round"/>
<path d="M12.7554 78.71H38.5554" stroke="#08BD80" stroke-width="3" stroke-miterlimit="10" stroke-linecap="round" stroke-linejoin="round"/>
<path d="M33.2515 69.9255H47.9155" stroke="#08BD80" stroke-width="3" stroke-miterlimit="10" stroke-linecap="round" stroke-linejoin="round"/>
<path d="M18.6113 69.9255H24.5633" stroke="#08BD80" stroke-width="3" stroke-miterlimit="10" stroke-linecap="round" stroke-linejoin="round"/>
</svg>
