<svg width="96" height="97" viewBox="0 0 96 97" fill="none" xmlns="http://www.w3.org/2000/svg">
<path fill-rule="evenodd" clip-rule="evenodd" d="M47.9999 18.3976C48.994 18.3976 49.7999 19.2035 49.7999 20.1976V80.1976C49.7999 81.1917 48.994 81.9976 47.9999 81.9976C47.0057 81.9976 46.1999 81.1917 46.1999 80.1976V20.1976C46.1999 19.2035 47.0057 18.3976 47.9999 18.3976Z" fill="#3C4852"/>
<path fill-rule="evenodd" clip-rule="evenodd" d="M58.7999 8.79761C59.794 8.79761 60.5999 9.60349 60.5999 10.5976C60.5999 13.6941 59.2142 16.6141 56.8325 18.7312C54.4576 20.8421 51.2776 21.9976 47.9999 21.9976C44.7221 21.9976 41.5421 20.8421 39.1672 18.7312C36.7855 16.6141 35.3999 13.6941 35.3999 10.5976C35.3999 9.6035 36.2057 8.79761 37.1999 8.79761C38.194 8.79761 38.9999 9.6035 38.9999 10.5976C38.9999 12.5933 39.8899 14.5569 41.559 16.0405C43.2349 17.5302 45.5489 18.3976 47.9999 18.3976C50.4508 18.3976 52.7648 17.5302 54.4408 16.0405C56.1098 14.5569 56.9999 12.5933 56.9999 10.5976C56.9999 9.60349 57.8057 8.79761 58.7999 8.79761Z" fill="#3C4852"/>
<path fill-rule="evenodd" clip-rule="evenodd" d="M38.4726 9.32482C39.1756 10.0278 39.1756 11.1675 38.4726 11.8704C34.6027 15.7403 29.2175 18.4544 23.9841 20.2502C18.7343 22.0515 13.4715 22.9853 9.6997 23.1948C8.70712 23.25 7.85777 22.49 7.80263 21.4975C7.74748 20.5049 8.50743 19.6555 9.50001 19.6004C12.9282 19.4099 17.8654 18.5437 22.8156 16.8451C27.7822 15.1408 32.597 12.6549 35.9271 9.32482C36.63 8.62187 37.7697 8.62187 38.4726 9.32482Z" fill="#3C4852"/>
<path fill-rule="evenodd" clip-rule="evenodd" d="M57.5271 9.32482C56.8241 10.0278 56.8241 11.1675 57.5271 11.8704C61.397 15.7403 66.7822 18.4544 72.0156 20.2502C77.2654 22.0515 82.5282 22.9853 86.3 23.1948C87.2926 23.25 88.1419 22.49 88.1971 21.4975C88.2522 20.5049 87.4923 19.6555 86.4997 19.6004C83.0715 19.4099 78.1343 18.5437 73.1841 16.8451C68.2175 15.1408 63.4027 12.6549 60.0726 9.32482C59.3697 8.62187 58.23 8.62187 57.5271 9.32482Z" fill="#3C4852"/>
<path fill-rule="evenodd" clip-rule="evenodd" d="M39.4799 15.1576C40.2751 15.7541 40.4363 16.8823 39.8399 17.6776C36.0072 22.7878 30.8215 26.6855 23.0958 27.9731C22.1152 28.1365 21.1878 27.4741 21.0243 26.4935C20.8609 25.5129 21.5233 24.5855 22.5039 24.4221C29.1782 23.3097 33.5925 20.0074 36.9599 15.5176C37.5563 14.7223 38.6846 14.5611 39.4799 15.1576Z" fill="#3C4852"/>
<path fill-rule="evenodd" clip-rule="evenodd" d="M56.5199 15.1576C55.7246 15.7541 55.5634 16.8823 56.1599 17.6776C59.9925 22.7878 65.1782 26.6855 72.9039 27.9731C73.8845 28.1365 74.8119 27.4741 74.9754 26.4935C75.1388 25.5129 74.4764 24.5855 73.4958 24.4221C66.8215 23.3097 62.4072 20.0074 59.0399 15.5176C58.4434 14.7223 57.3151 14.5611 56.5199 15.1576Z" fill="#3C4852"/>
<path d="M58.7999 27.9976C58.7999 29.6544 57.4568 30.9976 55.7999 30.9976C54.143 30.9976 52.7999 29.6544 52.7999 27.9976C52.7999 26.3407 54.143 24.9976 55.7999 24.9976C57.4568 24.9976 58.7999 26.3407 58.7999 27.9976Z" fill="#55B984"/>
<path d="M43.1999 27.9976C43.1999 29.6544 41.8568 30.9976 40.1999 30.9976C38.543 30.9976 37.1999 29.6544 37.1999 27.9976C37.1999 26.3407 38.543 24.9976 40.1999 24.9976C41.8568 24.9976 43.1999 26.3407 43.1999 27.9976Z" fill="#55B984"/>
<path fill-rule="evenodd" clip-rule="evenodd" d="M41.1627 27.7045C41.656 28.5676 41.3561 29.6672 40.493 30.1604L35.9842 32.7368C34.1388 33.7913 32.9999 35.7539 32.9999 37.8793C32.9999 40.2586 34.4237 42.407 36.615 43.3341L58.7456 52.6971C62.0517 54.0958 64.1999 57.3371 64.1999 60.9269C64.1999 64.6055 61.9457 67.9082 58.5201 69.2486L56.1558 70.1738C55.2301 70.5361 54.1859 70.0792 53.8237 69.1535C53.4614 68.2277 53.9182 67.1836 54.844 66.8213L57.2083 65.8962C59.2538 65.0957 60.5999 63.1235 60.5999 60.9269C60.5999 58.7833 59.3172 56.8478 57.3429 56.0125L35.2123 46.6496C31.6891 45.159 29.3999 41.7048 29.3999 37.8793C29.3999 34.462 31.231 31.3066 34.1981 29.6111L38.7069 27.0347C39.57 26.5415 40.6695 26.8414 41.1627 27.7045ZM54.8371 27.7045C55.3303 26.8414 56.4298 26.5415 57.293 27.0347L61.8017 29.6111C64.7688 31.3066 66.5999 34.462 66.5999 37.8793C66.5999 41.7048 64.3107 45.159 60.7875 46.6496L55.7513 48.7803C54.8357 49.1676 53.7795 48.7395 53.3922 47.8239C53.0048 46.9084 53.433 45.8522 54.3486 45.4648L59.3848 43.3341C61.5761 42.407 62.9999 40.2586 62.9999 37.8793C62.9999 35.7539 61.861 33.7913 60.0156 32.7368L55.5069 30.1604C54.6437 29.6672 54.3438 28.5676 54.8371 27.7045ZM43.0576 52.1962C43.445 53.1118 43.0168 54.168 42.1013 54.5553L38.6355 56.0216C36.6742 56.8513 35.3999 58.7742 35.3999 60.9038C35.3999 63.1034 36.7583 65.0746 38.8139 65.8576L55.2063 72.1024C58.4557 73.3402 60.5999 76.4619 60.5999 79.9351C60.5999 82.9678 58.9562 85.7698 56.3023 87.2442C51.139 90.1127 44.8608 90.1127 39.6975 87.2442L39.4945 87.1314C36.9673 85.7274 35.3999 83.0637 35.3999 80.1727C35.3999 77.316 36.9306 74.6783 39.4109 73.261L40.5069 72.6347C41.37 72.1415 42.4695 72.4414 42.9627 73.3045C43.456 74.1676 43.1561 75.2672 42.293 75.7604L41.197 76.3866C39.8384 77.163 38.9999 78.6079 38.9999 80.1727C38.9999 81.7563 39.8585 83.2154 41.2428 83.9845L41.4458 84.0973C45.5218 86.3617 50.478 86.3617 54.554 84.0973C56.0622 83.2594 56.9999 81.6637 56.9999 79.9351C56.9999 77.9517 55.7744 76.1712 53.9247 75.4665L37.5323 69.2218C34.0808 67.9069 31.7999 64.5972 31.7999 60.9038C31.7999 57.328 33.9397 54.0994 37.2328 52.7061L40.6986 51.2398C41.6141 50.8525 42.6703 51.2807 43.0576 52.1962Z" fill="#55B984"/>
</svg>
