<svg width="96" height="96" viewBox="0 0 96 96" fill="none" xmlns="http://www.w3.org/2000/svg">
<path d="M49.6406 14.3967V7.53272L59.2406 10.7247C59.283 10.7395 59.3197 10.767 59.3457 10.8036C59.3717 10.8401 59.3856 10.8839 59.3856 10.9287C59.3856 10.9736 59.3717 11.0173 59.3457 11.0539C59.3197 11.0904 59.283 11.118 59.2406 11.1327L49.6406 14.3967Z" fill="#08BD80"/>
<path d="M49.022 15.168V6.69604L59.414 10.176C59.5744 10.2231 59.7152 10.3212 59.8148 10.4554C59.9144 10.5897 59.9675 10.7528 59.966 10.92C59.9729 11.0913 59.9223 11.2599 59.8222 11.3991C59.7222 11.5383 59.5785 11.64 59.414 11.688L49.022 15.168ZM50.222 8.35204V13.488L57.902 10.92L50.222 8.35204Z" fill="#08BD80"/>
<path d="M79.2027 44.3766H16.9228C16.6459 44.3759 16.3728 44.313 16.1236 44.1925C15.8743 44.072 15.6553 43.8971 15.4828 43.6806C15.3163 43.4611 15.2018 43.2066 15.1477 42.9364C15.0937 42.6663 15.1016 42.3873 15.1708 42.1206C17.0351 34.8285 21.2739 28.3646 27.2188 23.7484C33.1636 19.1322 40.4761 16.6265 48.0028 16.6265C55.5294 16.6265 62.8419 19.1322 68.7867 23.7484C74.7316 28.3646 78.9705 34.8285 80.8348 42.1206C80.904 42.3873 80.9118 42.6663 80.8578 42.9364C80.8038 43.2066 80.6892 43.4611 80.5227 43.6806C80.3612 43.8799 80.161 44.0443 79.9341 44.164C79.7072 44.2836 79.4584 44.3559 79.2027 44.3766ZM19.3228 40.8006H76.8028C74.7566 34.8198 70.8919 29.6283 65.7494 25.9525C60.6069 22.2768 54.4439 20.3006 48.1228 20.3006C41.8016 20.3006 35.6386 22.2768 30.4961 25.9525C25.3536 29.6283 21.4889 34.8198 19.4428 40.8006H19.3228Z" fill="#3C4852"/>
<path d="M48.0002 19.3679C47.5247 19.3617 47.0705 19.17 46.7343 18.8338C46.398 18.4976 46.2064 18.0434 46.2002 17.5679V7.1999C46.2002 6.72251 46.3898 6.26468 46.7274 5.92711C47.065 5.58954 47.5228 5.3999 48.0002 5.3999C48.4776 5.3999 48.9354 5.58954 49.273 5.92711C49.6106 6.26468 49.8002 6.72251 49.8002 7.1999V17.5679C49.794 18.0434 49.6023 18.4976 49.2661 18.8338C48.9299 19.17 48.4757 19.3617 48.0002 19.3679V19.3679Z" fill="#3C4852"/>
<path d="M84.2841 44.3766H11.7561C11.2787 44.3766 10.8208 44.187 10.4833 43.8494C10.1457 43.5118 9.95605 43.054 9.95605 42.5766C9.95605 42.0992 10.1457 41.6414 10.4833 41.3038C10.8208 40.9663 11.2787 40.7766 11.7561 40.7766H84.2841C84.7614 40.7766 85.2193 40.9663 85.5568 41.3038C85.8944 41.6414 86.0841 42.0992 86.0841 42.5766C86.0841 43.054 85.8944 43.5118 85.5568 43.8494C85.2193 44.187 84.7614 44.3766 84.2841 44.3766V44.3766Z" fill="#3C4852"/>
<path d="M84.2841 69.8651H11.7561C11.2787 69.8651 10.8208 69.6755 10.4833 69.3379C10.1457 69.0004 9.95605 68.5425 9.95605 68.0651C9.95605 67.5877 10.1457 67.1299 10.4833 66.7923C10.8208 66.4548 11.2787 66.2651 11.7561 66.2651H84.2841C84.7614 66.2651 85.2193 66.4548 85.5568 66.7923C85.8944 67.1299 86.0841 67.5877 86.0841 68.0651C86.0841 68.5425 85.8944 69.0004 85.5568 69.3379C85.2193 69.6755 84.7614 69.8651 84.2841 69.8651Z" fill="#3C4852"/>
<path d="M16.9222 62.4001C16.685 62.4033 16.4494 62.359 16.2296 62.2697C16.0098 62.1803 15.81 62.0479 15.6422 61.8801C15.4745 61.7123 15.342 61.5126 15.2527 61.2927C15.1634 61.0729 15.119 60.8374 15.1222 60.6001V50.4001C15.1222 49.9227 15.3119 49.4649 15.6494 49.1273C15.987 48.7897 16.4448 48.6001 16.9222 48.6001C17.3996 48.6001 17.8575 48.7897 18.195 49.1273C18.5326 49.4649 18.7222 49.9227 18.7222 50.4001V60.7681C18.6803 61.2158 18.4723 61.6316 18.1391 61.9336C17.806 62.2356 17.3719 62.4021 16.9222 62.4001V62.4001Z" fill="#3C4852"/>
<path d="M79.2092 62.1133C78.7337 62.107 78.2795 61.9154 77.9433 61.5792C77.607 61.243 77.4154 60.7887 77.4092 60.3133V49.9453C77.4092 49.4679 77.5988 49.01 77.9364 48.6725C78.274 48.3349 78.7318 48.1453 79.2092 48.1453C79.6866 48.1453 80.1444 48.3349 80.482 48.6725C80.8195 49.01 81.0092 49.4679 81.0092 49.9453V60.3133C81.0092 60.7907 80.8195 61.2485 80.482 61.5861C80.1444 61.9236 79.6866 62.1133 79.2092 62.1133V62.1133Z" fill="#3C4852"/>
<path d="M63.5344 62.1133C63.057 62.1133 62.5992 61.9236 62.2616 61.5861C61.924 61.2485 61.7344 60.7907 61.7344 60.3133V49.9453C61.7344 49.4679 61.924 49.01 62.2616 48.6725C62.5992 48.3349 63.057 48.1453 63.5344 48.1453C64.0118 48.1453 64.4696 48.3349 64.8072 48.6725C65.1447 49.01 65.3344 49.4679 65.3344 49.9453V60.3133C65.3282 60.7887 65.1365 61.243 64.8003 61.5792C64.4641 61.9154 64.0098 62.107 63.5344 62.1133Z" fill="#3C4852"/>
<path d="M48.0002 62.1133C47.5247 62.107 47.0705 61.9154 46.7343 61.5792C46.398 61.243 46.2064 60.7887 46.2002 60.3133V49.9453C46.2002 49.4679 46.3898 49.01 46.7274 48.6725C47.065 48.3349 47.5228 48.1453 48.0002 48.1453C48.4776 48.1453 48.9354 48.3349 49.273 48.6725C49.6106 49.01 49.8002 49.4679 49.8002 49.9453V60.3133C49.794 60.7887 49.6023 61.243 49.2661 61.5792C48.9299 61.9154 48.4757 62.107 48.0002 62.1133V62.1133Z" fill="#3C4852"/>
<path d="M32.4377 62.1133C31.9622 62.107 31.508 61.9154 31.1718 61.5792C30.8355 61.243 30.6439 60.7887 30.6377 60.3133V49.9453C30.6377 49.4679 30.8273 49.01 31.1649 48.6725C31.5025 48.3349 31.9603 48.1453 32.4377 48.1453C32.9151 48.1453 33.3729 48.3349 33.7105 48.6725C34.0481 49.01 34.2377 49.4679 34.2377 49.9453V60.3133C34.2377 60.7907 34.0481 61.2485 33.7105 61.5861C33.3729 61.9236 32.9151 62.1133 32.4377 62.1133V62.1133Z" fill="#3C4852"/>
<path d="M84.2841 90.6H11.7561C11.2787 90.6 10.8208 90.4104 10.4833 90.0728C10.1457 89.7352 9.95605 89.2774 9.95605 88.8C9.95605 88.3226 10.1457 87.8648 10.4833 87.5272C10.8208 87.1896 11.2787 87 11.7561 87H84.2841C84.7614 87 85.2193 87.1896 85.5568 87.5272C85.8944 87.8648 86.0841 88.3226 86.0841 88.8C86.0841 89.2774 85.8944 89.7352 85.5568 90.0728C85.2193 90.4104 84.7614 90.6 84.2841 90.6Z" fill="#3C4852"/>
<path d="M23.8186 79.2022V74.9302C23.7962 74.7864 23.8052 74.6395 23.845 74.4996C23.8848 74.3596 23.9544 74.2299 24.049 74.1194C24.1436 74.0089 24.261 73.9202 24.3932 73.8594C24.5254 73.7986 24.6691 73.7671 24.8146 73.7671C24.9601 73.7671 25.1039 73.7986 25.236 73.8594C25.3682 73.9202 25.4856 74.0089 25.5802 74.1194C25.6749 74.2299 25.7445 74.3596 25.7842 74.4996C25.824 74.6395 25.833 74.7864 25.8106 74.9302V79.2022C25.8106 80.6902 26.5546 81.4582 27.7786 81.4582C29.0026 81.4582 29.7226 80.7142 29.7226 79.2742V74.9302C29.7002 74.7864 29.7092 74.6395 29.749 74.4996C29.7888 74.3596 29.8584 74.2299 29.953 74.1194C30.0476 74.0089 30.165 73.9202 30.2972 73.8594C30.4294 73.7986 30.5731 73.7671 30.7186 73.7671C30.8641 73.7671 31.0079 73.7986 31.14 73.8594C31.2722 73.9202 31.3896 74.0089 31.4842 74.1194C31.5789 74.2299 31.6485 74.3596 31.6882 74.4996C31.728 74.6395 31.737 74.7864 31.7146 74.9302V79.2022C31.7822 79.7458 31.7265 80.2976 31.5517 80.8168C31.3768 81.3359 31.0873 81.8091 30.7045 82.201C30.3218 82.5929 29.8558 82.8937 29.3409 83.0808C28.8261 83.268 28.2757 83.3368 27.7306 83.2822C27.1891 83.3345 26.6429 83.2635 26.1328 83.0744C25.6227 82.8853 25.1621 82.583 24.7857 82.1904C24.4092 81.7977 24.1266 81.3249 23.9591 80.8073C23.7916 80.2897 23.7436 79.741 23.8186 79.2022Z" fill="#08BD80"/>
<path d="M38.9251 75.0023C38.9219 74.871 38.945 74.7405 38.993 74.6183C39.041 74.4962 39.113 74.3848 39.2047 74.2909C39.2964 74.197 39.4059 74.1223 39.5269 74.0714C39.6479 74.0204 39.7778 73.9942 39.9091 73.9943H42.6211C43.062 73.943 43.5089 73.9864 43.9317 74.1216C44.3545 74.2568 44.7436 74.4807 45.073 74.7783C45.4024 75.0759 45.6645 75.4403 45.8418 75.8473C46.0191 76.2543 46.1075 76.6944 46.1011 77.1383C46.0984 77.5986 45.9976 78.0531 45.8055 78.4715C45.6133 78.8898 45.3342 79.2624 44.9868 79.5645C44.6393 79.8665 44.2315 80.091 43.7905 80.2231C43.3495 80.3551 42.8854 80.3917 42.4291 80.3303H40.9171V82.1303C40.9171 82.2626 40.891 82.3937 40.8404 82.516C40.7897 82.6383 40.7155 82.7494 40.6219 82.843C40.5283 82.9366 40.4171 83.0109 40.2948 83.0615C40.1725 83.1122 40.0415 83.1383 39.9091 83.1383C39.7778 83.1383 39.6479 83.1121 39.5269 83.0611C39.4059 83.0102 39.2964 82.9356 39.2047 82.8416C39.113 82.7477 39.041 82.6364 38.993 82.5142C38.945 82.392 38.9219 82.2615 38.9251 82.1303V75.0023ZM42.5011 78.5783C42.6967 78.6017 42.895 78.5841 43.0834 78.5265C43.2718 78.469 43.4461 78.3727 43.5951 78.244C43.7442 78.1152 43.8648 77.9568 43.9492 77.7788C44.0335 77.6008 44.0798 77.4072 44.0851 77.2103V77.2103C44.0851 76.2983 43.4611 75.8183 42.4531 75.8183H40.9171V78.6023L42.5011 78.5783Z" fill="#08BD80"/>
<path d="M52.5663 82.1031C52.4195 81.9813 52.3135 81.8177 52.2624 81.634C52.2112 81.4503 52.2173 81.2554 52.28 81.0753C52.3426 80.8953 52.4587 80.7386 52.6128 80.6263C52.7669 80.5141 52.9516 80.4515 53.1423 80.4471C53.3398 80.4401 53.5341 80.4992 53.6943 80.6151C54.3797 81.1492 55.2253 81.4367 56.0943 81.4311C56.9103 81.4311 57.4143 81.1191 57.4143 80.5911C57.4143 80.0631 57.1023 79.8231 55.5903 79.4391C54.0783 79.0551 52.5663 78.4551 52.5663 76.6551C52.5765 76.259 52.6697 75.8694 52.8399 75.5116C53.01 75.1538 53.2534 74.8356 53.5543 74.5778C53.8551 74.3199 54.2067 74.128 54.5864 74.0146C54.966 73.9011 55.3652 73.8686 55.7583 73.9191C56.7658 73.909 57.7558 74.1835 58.6143 74.7111C58.7532 74.7913 58.8686 74.9068 58.9486 75.0459C59.0287 75.1849 59.0706 75.3426 59.0703 75.5031C59.0703 75.7513 58.9716 75.9894 58.7961 76.1649C58.6206 76.3405 58.3825 76.4391 58.1343 76.4391C57.9573 76.4313 57.7846 76.382 57.6303 76.2951C57.0606 75.9129 56.3958 75.6969 55.7103 75.6711C54.9663 75.6711 54.5583 76.0311 54.5583 76.4631C54.5583 77.0631 54.9423 77.2551 56.5023 77.6631C58.0623 78.0711 59.3823 78.8151 59.3823 80.3751C59.3823 82.1751 58.0143 83.1831 56.0463 83.1831C54.8007 83.204 53.5811 82.8255 52.5663 82.1031Z" fill="#08BD80"/>
<path d="M65.7946 78.5522C65.7842 77.9246 65.9022 77.3014 66.1413 76.721C66.3804 76.1405 66.7356 75.6151 67.1851 75.1769C67.6346 74.7386 68.1688 74.3969 68.7551 74.1725C69.3414 73.9482 69.9674 73.846 70.5946 73.8722C71.6766 73.8264 72.7423 74.1478 73.6186 74.7842C73.7383 74.8786 73.8351 74.9989 73.9016 75.1361C73.9681 75.2733 74.0026 75.4238 74.0026 75.5762C74.0026 75.8372 73.8989 76.0875 73.7144 76.272C73.5298 76.4566 73.2795 76.5602 73.0186 76.5602C72.8011 76.5518 72.5915 76.4763 72.4186 76.3442C71.8933 75.9259 71.242 75.6976 70.5706 75.6962C70.2102 75.702 69.8547 75.7808 69.5257 75.928C69.1967 76.0751 68.9009 76.2875 68.6564 76.5523C68.4118 76.817 68.2235 77.1286 68.1029 77.4683C67.9822 77.8079 67.9318 78.1685 67.9546 78.5282V78.5282C67.9319 78.8891 67.9822 79.2509 68.1026 79.5918C68.2229 79.9328 68.4109 80.246 68.6551 80.5126C68.8993 80.7793 69.1949 80.9939 69.524 81.1437C69.8531 81.2934 70.2091 81.3753 70.5706 81.3842C71.2933 81.3975 71.995 81.1408 72.5386 80.6642C72.7099 80.5292 72.9205 80.4534 73.1386 80.4482C73.3849 80.4543 73.6195 80.5549 73.7937 80.7291C73.9679 80.9033 74.0685 81.1379 74.0746 81.3842C74.0764 81.5184 74.0471 81.6511 73.9887 81.7719C73.9304 81.8927 73.8448 81.9983 73.7386 82.0802C73.0482 82.6561 72.2099 83.0265 71.3192 83.1493C70.4286 83.272 69.5213 83.1421 68.7009 82.7744C67.8804 82.4067 67.1798 81.816 66.6787 81.0695C66.1775 80.323 65.8962 79.4508 65.8666 78.5522H65.7946Z" fill="#08BD80"/>
<path d="M84.274 80.6154C84.9898 80.6154 85.57 80.0352 85.57 79.3194C85.57 78.6037 84.9898 78.0234 84.274 78.0234C83.5583 78.0234 82.978 78.6037 82.978 79.3194C82.978 80.0352 83.5583 80.6154 84.274 80.6154Z" fill="#3C4852"/>
<path d="M84.2554 81.2153C83.8804 81.2153 83.5138 81.1041 83.202 80.8958C82.8902 80.6875 82.6472 80.3914 82.5037 80.0449C82.3602 79.6985 82.3226 79.3172 82.3958 78.9494C82.469 78.5817 82.6495 78.2438 82.9147 77.9787C83.1799 77.7135 83.5177 77.5329 83.8855 77.4598C84.2533 77.3866 84.6345 77.4242 84.9809 77.5677C85.3274 77.7112 85.6235 77.9542 85.8318 78.266C86.0402 78.5778 86.1514 78.9443 86.1514 79.3193C86.1514 79.8222 85.9516 80.3044 85.596 80.66C85.2405 81.0156 84.7582 81.2153 84.2554 81.2153ZM84.2554 78.6233C84.1177 78.6233 83.9832 78.6642 83.8687 78.7406C83.7542 78.8171 83.665 78.9258 83.6124 79.053C83.5597 79.1802 83.5459 79.3201 83.5728 79.4551C83.5996 79.5901 83.6659 79.7142 83.7632 79.8115C83.8606 79.9088 83.9846 79.9751 84.1196 80.002C84.2546 80.0288 84.3945 80.015 84.5217 79.9624C84.6489 79.9097 84.7576 79.8205 84.8341 79.706C84.9106 79.5916 84.9514 79.457 84.9514 79.3193C84.9514 79.1347 84.878 78.9577 84.7475 78.8272C84.617 78.6967 84.44 78.6233 84.2554 78.6233Z" fill="#3C4852"/>
<path d="M11.7306 80.6154C12.4463 80.6154 13.0266 80.0352 13.0266 79.3194C13.0266 78.6037 12.4463 78.0234 11.7306 78.0234C11.0148 78.0234 10.4346 78.6037 10.4346 79.3194C10.4346 80.0352 11.0148 80.6154 11.7306 80.6154Z" fill="#3C4852"/>
<path d="M11.749 81.2153C11.374 81.2153 11.0075 81.1041 10.6957 80.8958C10.3839 80.6875 10.1409 80.3914 9.99735 80.0449C9.85385 79.6985 9.8163 79.3172 9.88946 78.9494C9.96262 78.5817 10.1432 78.2438 10.4084 77.9787C10.6735 77.7135 11.0113 77.5329 11.3791 77.4598C11.7469 77.3866 12.1281 77.4242 12.4746 77.5677C12.821 77.7112 13.1172 77.9542 13.3255 78.266C13.5338 78.5778 13.645 78.9443 13.645 79.3193C13.645 79.8222 13.4453 80.3044 13.0897 80.66C12.7341 81.0156 12.2519 81.2153 11.749 81.2153V81.2153ZM11.749 78.6233C11.6114 78.6233 11.4768 78.6642 11.3624 78.7406C11.2479 78.8171 11.1587 78.9258 11.106 79.053C11.0533 79.1802 11.0395 79.3201 11.0664 79.4551C11.0933 79.5901 11.1595 79.7142 11.2569 79.8115C11.3542 79.9088 11.4782 79.9751 11.6132 80.002C11.7483 80.0288 11.8882 80.015 12.0154 79.9624C12.1426 79.9097 12.2513 79.8205 12.3277 79.706C12.4042 79.5916 12.445 79.457 12.445 79.3193C12.445 79.1347 12.3717 78.9577 12.2412 78.8272C12.1106 78.6967 11.9336 78.6233 11.749 78.6233Z" fill="#3C4852"/>
</svg>
