<svg xmlns="http://www.w3.org/2000/svg" width="310" height="171" fill="none"><mask id="a" fill="#fff"><path d="M0 0h310v166a5 5 0 0 1-5 5H5a5 5 0 0 1-5-5V0Z"/></mask><path fill="#F9FBFA" d="M0 0h310v166a5 5 0 0 1-5 5H5a5 5 0 0 1-5-5V0Z"/><path fill="#889397" d="M0-1h310v2H0v-2Zm310 172H0h310ZM0 171V0v171ZM310 0v171V0Z" mask="url(#a)"/><rect width="215" height="147" x="47.5" y="12.5" fill="#fff" stroke="#E8EDEB" rx="5.5"/><path fill="#E8EDEB" d="M47 18a6 6 0 0 1 6-6h50v148H53a6 6 0 0 1-6-6V18Z"/><circle cx="61" cy="26" r="6" fill="#00684A"/><rect width="120" height="8" x="119" y="83" fill="#E8EDEB" rx="4"/><rect width="32" height="8" x="119" y="67" fill="#E8EDEB" rx="4"/><rect width="32" height="8" x="155" y="67" fill="#E8EDEB" rx="4"/><rect width="32" height="8" x="191" y="67" fill="#00684A" rx="4"/><rect width="120" height="8" x="119" y="99" fill="#E8EDEB" rx="4"/><rect width="120" height="8" x="119" y="115" fill="#E8EDEB" rx="4"/></svg>