<svg xmlns="http://www.w3.org/2000/svg" width="310" height="171" fill="none"><mask id="a" fill="#fff"><path d="M0 0h310v166a5 5 0 0 1-5 5H5a5 5 0 0 1-5-5V0Z"/></mask><path fill="#F9FBFA" d="M0 0h310v166a5 5 0 0 1-5 5H5a5 5 0 0 1-5-5V0Z"/><path fill="#889397" d="M0-1h310v2H0v-2Zm310 172H0h310ZM0 171V0v171ZM310 0v171V0Z" mask="url(#a)"/><rect width="215" height="147" x="32.5" y="12.5" fill="#fff" stroke="#E8EDEB" rx="5.5"/><path fill="#E8EDEB" d="M32 18a6 6 0 0 1 6-6h50v148H38a6 6 0 0 1-6-6V18Z"/><circle cx="46" cy="26" r="6" fill="#00684A"/><rect width="120" height="8" x="104" y="83" fill="#E8EDEB" rx="4"/><rect width="32" height="8" x="104" y="67" fill="#E8EDEB" rx="4"/><rect width="32" height="8" x="140" y="67" fill="#E8EDEB" rx="4"/><rect width="32" height="8" x="176" y="67" fill="#00684A" rx="4"/><rect width="120" height="8" x="104" y="99" fill="#E8EDEB" rx="4"/><rect width="120" height="8" x="104" y="115" fill="#E8EDEB" rx="4"/><mask id="b" fill="#fff"><path d="M156 0h154v166a5 5 0 0 1-5 5H156V0Z"/></mask><path fill="#5C6C75" d="M156 0h154v166a5 5 0 0 1-5 5H156V0Z"/><path fill="#889397" d="M156-1h154v2H156v-2Zm154 172H156h154Zm-154 0V0v171ZM310 0v171V0Z" mask="url(#b)"/><path fill="#001E2B" stroke="#1C2D38" d="M193 12.5h116.5v147H193a5.5 5.5 0 0 1-5.5-5.5V18a5.5 5.5 0 0 1 5.5-5.5Z"/><path fill="#1C2D38" d="M187 18a6 6 0 0 1 6-6h50v148h-50a6 6 0 0 1-6-6V18Z"/><circle cx="201" cy="26" r="6" fill="#00ED64"/><path fill="#889397" d="M259 87a4 4 0 0 1 4-4h46v8h-46a4 4 0 0 1-4-4Z"/><rect width="32" height="8" x="259" y="67" fill="#889397" rx="4"/><path fill="#889397" d="M295 71a4 4 0 0 1 4-4h10v8h-10a4 4 0 0 1-4-4ZM259 103a4 4 0 0 1 4-4h46v8h-46a4 4 0 0 1-4-4ZM259 119a4 4 0 0 1 4-4h46v8h-46a4 4 0 0 1-4-4Z"/></svg>